<svg width="50" height="50" viewBox="0 0 50 50" fill="none" xmlns="http://www.w3.org/2000/svg">
<path fill-rule="evenodd" clip-rule="evenodd" d="M9.01147 4.82787C9.12784 4.52061 9.40153 4.23148 9.70354 4.09681C9.90666 4.00629 12.6 3.99012 25.1058 4.00473L40.2618 4.02237L40.4884 4.1916C40.6426 4.30677 40.7546 4.39018 40.8364 4.49673C41.0533 4.7792 41.0583 5.22436 41.0779 6.85551L41.1024 8.89744L43.1443 8.9219C44.7755 8.9415 45.2206 8.94653 45.5031 9.16342C45.6097 9.24524 45.6931 9.35721 45.8082 9.51147C45.9751 9.73494 45.9775 9.8125 45.9775 15.1015C45.9775 20.3905 45.9751 20.4681 45.8082 20.6916C45.4496 21.172 45.2499 21.2544 44.3714 21.2848L43.5565 21.313V29.956V38.599L44.4124 38.627C45.3713 38.6583 45.5894 38.755 45.8666 39.2718C46.0057 39.5313 46.0185 39.7849 46.0185 42.2884C46.0185 44.8658 46.0091 45.0402 45.8533 45.3456C45.7469 45.5541 45.5726 45.7284 45.3641 45.8348C45.0421 45.999 44.9229 46 25.0092 46C5.09544 46 4.9762 45.999 4.65425 45.8348C4.44571 45.7284 4.2714 45.5541 4.16504 45.3456C4.00928 45.0402 3.99984 44.866 4 42.2897C4.00008 39.8509 4.01551 39.5275 4.14362 39.2763C4.40443 38.7647 4.64382 38.6584 5.6059 38.627L6.46187 38.599V29.956V21.313L5.64694 21.2848C4.7684 21.2544 4.56873 21.172 4.2101 20.6916C4.04325 20.4681 4.04087 20.3905 4.04087 15.1015C4.04087 9.8125 4.04325 9.73494 4.2101 9.51147C4.32521 9.35727 4.40855 9.24534 4.51504 9.16353C4.79761 8.94644 5.24317 8.94151 6.87803 8.9219L8.9239 8.89736V6.97812C8.9239 5.81785 8.95853 4.96755 9.01147 4.82787ZM38.6324 8.9054V7.67439V6.44337H25.0092H11.3859V7.67439V8.9054H25.0092H38.6324ZM43.5565 18.8356V15.1015V11.3674H25.0092H6.46187V15.1015V18.8356H25.0092H43.5565ZM13.9306 15.0918C13.9312 14.6409 14.107 14.3099 14.475 14.0673C14.7017 13.9179 15.0574 13.9126 25.0092 13.9126C34.9609 13.9126 35.3166 13.9179 35.5433 14.0673C36.3019 14.5675 36.2781 15.6989 35.499 16.1684C35.2305 16.3302 35.0811 16.3325 25.0092 16.3325C14.9372 16.3325 14.7879 16.3302 14.5194 16.1684C14.1291 15.9333 13.9299 15.5691 13.9306 15.0918ZM13.848 38.6139V29.9558V21.2976H11.3859H8.9239V29.9558V38.6139H11.3859H13.848ZM41.0944 38.6139V29.9558V21.2976H38.6324H36.1704V29.9558V38.6139H38.6324H41.0944ZM43.5565 43.538V42.307V41.0759H25.0092H6.46187V42.307V43.538H25.0092H43.5565ZM33.6263 38.6139V29.9558V21.2976H25.0092H16.3921V29.9558V38.6139H31.939H33.6263Z" fill="white"/>
</svg>
