<svg width="50" height="50" viewBox="0 0 50 50" fill="none" xmlns="http://www.w3.org/2000/svg">
<path fill-rule="evenodd" clip-rule="evenodd" d="M27.0049 4.02798C26.1247 4.13812 24.7283 4.44984 23.9292 4.71472C21.7138 5.44916 18.6881 7.23532 17.0312 8.78671C16.7302 9.06858 16.6081 9.11936 16.022 9.2066C14.5144 9.431 12.9574 10.0677 11.8438 10.9156C10.5037 11.9357 9.02438 13.9218 9.02798 14.6958C9.02995 15.1052 9.34808 15.6317 9.71013 15.8248C10.3926 16.1886 11.0683 15.9265 11.5612 15.1066C12.5629 13.4405 13.7449 12.4658 15.3663 11.9687C16.4094 11.6489 16.4677 11.6614 17.0303 12.3259C18.3873 13.9286 20.581 15.4382 22.5798 16.1449C24.026 16.6561 24.8941 16.7919 26.7053 16.7899C28.993 16.7874 30.2145 16.5417 33.0833 15.5064C34.9386 14.8369 35.6704 14.6722 36.7646 14.678C37.4192 14.6814 37.8495 14.7345 38.3484 14.8733C39.3666 15.1567 39.598 15.169 40.0047 14.9611C40.4106 14.7536 40.7027 14.2704 40.7027 13.8062C40.7027 13.4261 39.8916 11.7961 39.0973 10.5797C36.8408 7.12441 33.8282 4.89194 30.4721 4.18839C29.8077 4.04908 27.6388 3.94872 27.0049 4.02798ZM30.3638 6.79957C32.2768 7.29468 34.0598 8.44472 35.5347 10.1351C36.1923 10.8887 36.9758 11.9407 36.9205 11.996C36.9029 12.0138 36.4739 12.0705 35.9673 12.1221C34.8233 12.2387 33.8473 12.491 32.1416 13.1108C30.443 13.7281 29.1802 14.0527 27.9572 14.1864C25.2112 14.4865 22.8029 13.8283 20.6508 12.1891L20.0581 11.7378L24.7943 11.6949C29.1153 11.6557 29.5547 11.6387 29.8078 11.5001C30.1267 11.3255 30.4293 10.7938 30.4293 10.4082C30.4293 9.98255 30.1265 9.48838 29.7467 9.29418C29.4214 9.12794 29.2495 9.12151 25.1081 9.12151H20.8074L21.2308 8.85199C22.9964 7.72821 25.1686 6.88398 26.9382 6.63393C27.7845 6.51427 29.6008 6.60211 30.3638 6.79957ZM43.8376 17.7023C43.3465 17.8496 42.9285 18.408 42.9285 18.9167C42.9285 19.0873 43.115 19.5729 43.3993 20.1433C43.9513 21.2504 44.1182 21.8335 44.186 22.892C44.24 23.7352 44.0728 24.8244 43.7907 25.4667C43.6426 25.8039 43.6209 25.8173 43.0479 25.9215C40.1321 26.4518 37.2878 28.0451 35.5365 30.1291C33.9149 32.0588 32.8889 34.3454 32.314 37.3112C31.7799 40.0658 31.6374 40.627 31.2854 41.362C30.8834 42.2015 30.6202 42.564 29.8002 43.4079C29.2143 44.0109 29.1987 44.0384 29.1676 44.523C29.1268 45.1597 29.3321 45.5181 29.8758 45.7591C30.3894 45.9867 32.4388 46.0709 33.9394 45.926C39.2193 45.4161 42.9464 43.0926 44.895 39.0963C45.3732 38.1156 45.8817 36.5444 46.1009 35.3697C46.473 33.3764 46.4137 29.8319 45.9734 27.7532C45.862 27.2274 45.8653 27.1983 46.1055 26.6258C46.5814 25.4908 46.7311 24.6611 46.7259 23.1892C46.7218 22.0328 46.6916 21.7481 46.4942 21.0038C46.24 20.0446 45.5476 18.5472 45.1472 18.0903C44.9993 17.9215 44.7456 17.7509 44.5695 17.7019C44.2097 17.6018 44.1726 17.6018 43.8376 17.7023ZM6.73549 18.8091C6.06747 19.2293 4.38744 22.2776 3.73046 24.2614C3.16877 25.9578 2.99754 27.0135 3.00003 28.7648C3.00182 29.9928 3.03735 30.4298 3.19513 31.1666C3.75126 33.7622 5.2664 36.1974 7.50299 38.0898C9.29722 39.608 11.5546 40.8915 13.8742 41.7123C14.681 41.9977 14.7631 42.0485 15.0614 42.4471C16.7482 44.7009 19.6712 46.1089 22.4239 45.9934C23.1932 45.9611 23.4315 45.8528 23.7892 45.3728C24.0315 45.0476 24.0302 44.3905 23.7866 44.0611C23.4148 43.5583 23.1649 43.4632 22.0674 43.4064C21.5106 43.3776 20.8238 43.2917 20.5413 43.2155C19.3975 42.9069 17.9975 42.0272 17.3411 41.2044L17.0516 40.8416L17.3572 39.8426C17.824 38.3164 17.9445 37.6038 17.9932 36.0847C18.0572 34.0863 17.805 32.6131 17.1108 30.9309C16.2083 28.7434 14.7745 26.916 12.2807 24.7743C10.3924 23.1528 9.82305 22.526 9.33695 21.5343C9.12403 21.0999 8.88852 20.4936 8.81361 20.1869C8.62218 19.4036 8.53546 19.2113 8.24995 18.9372C7.90887 18.6098 7.15387 18.546 6.73549 18.8091ZM7.4744 23.4807C8.0884 24.4116 8.75026 25.1152 10.1824 26.3594C10.9828 27.0549 11.9893 27.9927 12.4189 28.4435C14.0294 30.1337 15.0738 32.1599 15.3658 34.1603C15.4799 34.9424 15.4366 37.1562 15.3004 37.5054L15.2202 37.7111L15.0446 37.4197C14.9481 37.2593 13.8944 35.4347 12.7033 33.365C10.3331 29.2463 10.3588 29.2799 9.58308 29.2803C8.8339 29.2807 8.34326 29.7688 8.34232 30.5147C8.34172 30.9069 8.47356 31.1642 10.3206 34.3747C11.4091 36.2665 12.3802 37.9477 12.4786 38.1105L12.6576 38.4067L11.8909 37.9929C9.33832 36.6155 7.07673 34.3323 6.21823 32.266C5.69583 31.0087 5.56544 30.3209 5.5627 28.8077C5.55996 27.2685 5.6728 26.5701 6.16215 25.096C6.49595 24.0908 7.0335 22.8792 7.11123 22.9571C7.14 22.9858 7.30343 23.2215 7.4744 23.4807ZM41.7462 29.2151C41.1201 30.248 37.4007 36.7547 37.3026 36.989C37.1176 37.4305 37.2338 37.9187 37.6146 38.3003C38.0174 38.7039 38.4253 38.7908 38.9588 38.5868C39.4329 38.4053 39.3295 38.5629 41.7735 34.2975C42.8007 32.5047 43.6776 30.9993 43.7221 30.9521C43.8789 30.7857 43.7267 34.1338 43.5352 35.0646C42.7205 39.0231 40.6026 41.4962 36.9923 42.7047C35.9331 43.0592 33.1689 43.5488 33.1689 43.382C33.1689 43.3607 33.3194 43.0435 33.5033 42.6769C33.9727 41.7415 34.3139 40.5642 34.6639 38.6722C34.8297 37.7758 35.0455 36.7529 35.1433 36.3991C35.5716 34.8507 36.3442 33.2549 37.2101 32.1304C38.0675 31.0168 39.5954 29.8535 41.0174 29.2314C41.8736 28.8568 41.9646 28.8549 41.7462 29.2151Z" fill="white"/>
</svg>
