<svg width="164" height="37" viewBox="0 0 164 37" fill="none" xmlns="http://www.w3.org/2000/svg">
<path d="M0.663086 7.54688H11.8466C14.52 7.54688 16.8825 8.04778 18.9341 9.05319C20.9858 10.0586 22.5803 11.4712 23.7177 13.2947C24.855 15.1181 25.4219 17.2443 25.4219 19.6659C25.4219 22.0875 24.855 24.2137 23.7177 26.0371C22.5803 27.8606 20.9858 29.2768 18.9341 30.2786C16.8825 31.284 14.52 31.7849 11.8466 31.7849H0.663086V7.54688ZM11.565 27.1831C14.0263 27.1831 15.9901 26.5092 17.4567 25.1578C18.9232 23.8101 19.6546 21.9794 19.6546 19.6695C19.6546 17.3596 18.9232 15.5289 17.4567 14.1812C15.9901 12.8298 14.0263 12.1559 11.565 12.1559H6.3609V27.1867H11.565V27.1831Z" fill="#FF5710"/>
<path d="M47.7561 23.9974H33.4422C33.7018 25.1506 34.3089 26.0623 35.2707 26.7326C36.2325 27.4028 37.4284 27.738 38.8583 27.738C39.8421 27.738 40.7162 27.5938 41.4768 27.3055C42.2375 27.0172 42.947 26.5596 43.6053 25.9362L46.5237 29.0533C44.7426 31.0605 42.1388 32.0659 38.7157 32.0659C36.5836 32.0659 34.6929 31.6551 33.0545 30.8371C31.4125 30.0191 30.1471 28.8803 29.2548 27.4245C28.3624 25.9686 27.9199 24.3181 27.9199 22.4731C27.9199 20.6496 28.3588 19.0064 29.2401 17.5397C30.1178 16.073 31.3284 14.9307 32.8643 14.1126C34.4003 13.2946 36.1155 12.8838 38.0172 12.8838C39.8677 12.8838 41.5463 13.2766 43.0457 14.0622C44.5452 14.8478 45.7227 15.9721 46.5785 17.4388C47.4343 18.9055 47.8622 20.6064 47.8622 22.5451C47.8622 22.61 47.8256 23.0965 47.7561 23.9974ZM34.9196 18.0046C34.0748 18.6965 33.5592 19.6442 33.3727 20.8442H42.691C42.5045 19.6658 41.9888 18.7253 41.144 18.0226C40.2992 17.3163 39.2679 16.9667 38.0501 16.9667C36.8067 16.9667 35.7608 17.3127 34.9196 18.0046Z" fill="#FF5710"/>
<path d="M55.2272 30.8368C53.6217 30.0188 52.3673 28.88 51.464 27.4242C50.5607 25.9683 50.1108 24.3178 50.1108 22.4728C50.1108 20.6277 50.5607 18.9772 51.464 17.5214C52.3673 16.0655 53.6217 14.9304 55.2272 14.1087C56.8327 13.2907 58.6429 12.8799 60.6617 12.8799C62.6548 12.8799 64.3956 13.2907 65.884 14.1087C67.3725 14.9267 68.4587 16.0979 69.1389 17.6223L64.882 19.8745C63.8982 18.1664 62.4793 17.3124 60.6251 17.3124C59.1952 17.3124 58.0102 17.7736 57.074 18.6962C56.1378 19.6223 55.666 20.88 55.666 22.4728C55.666 24.0656 56.1341 25.3232 57.074 26.2494C58.0102 27.1719 59.1952 27.6332 60.6251 27.6332C62.5012 27.6332 63.9202 26.7791 64.882 25.071L69.1389 27.3557C68.4587 28.8332 67.3762 29.9863 65.884 30.8188C64.3956 31.6512 62.6548 32.0656 60.6617 32.0656C58.6466 32.0656 56.8363 31.6584 55.2272 30.8368Z" fill="#FF5710"/>
<path d="M75.7002 30.8368C74.1166 30.0188 72.8805 28.88 71.9882 27.4242C71.0958 25.9683 70.6533 24.3178 70.6533 22.4728C70.6533 20.6277 71.0995 18.9772 71.9882 17.5214C72.8805 16.0655 74.1166 14.9304 75.7002 14.1087C77.2837 13.2907 79.072 12.8799 81.0652 12.8799C83.0583 12.8799 84.8393 13.2907 86.4119 14.1087C87.9808 14.9267 89.2133 16.0655 90.1056 17.5214C90.9979 18.9772 91.4404 20.6277 91.4404 22.4728C91.4404 24.3178 90.9943 25.9683 90.1056 27.4242C89.2133 28.88 87.9845 30.0152 86.4119 30.8368C84.843 31.6584 83.0583 32.0656 81.0652 32.0656C79.0684 32.0656 77.28 31.6584 75.7002 30.8368ZM84.5248 26.2277C85.4281 25.2944 85.8779 24.0403 85.8779 22.4728C85.8779 20.9052 85.4245 19.6511 84.5248 18.7142C83.6215 17.7808 82.4658 17.3124 81.0615 17.3124C79.6535 17.3124 78.4942 17.7772 77.5799 18.7142C76.6656 19.6511 76.2085 20.9016 76.2085 22.4728C76.2085 24.0439 76.6656 25.2944 77.5799 26.2277C78.4942 27.1647 79.6535 27.6296 81.0615 27.6296C82.4695 27.6332 83.6252 27.1647 84.5248 26.2277Z" fill="#FF5710"/>
<path d="M100.941 12.0488V18.4561H112.337V22.9606H100.941V31.7895H95.2437V7.54785H113.851V12.0488H100.941Z" fill="#FF5710"/>
<path d="M117.263 9.69458C116.631 9.118 116.312 8.40088 116.312 7.54682C116.312 6.69276 116.631 5.97563 117.263 5.39905C117.896 4.82247 118.715 4.53418 119.725 4.53418C120.73 4.53418 121.553 4.81166 122.186 5.36662C122.819 5.92158 123.137 6.61348 123.137 7.44592C123.137 8.34683 122.819 9.08917 122.186 9.67657C121.553 10.2676 120.73 10.5595 119.725 10.5595C118.715 10.5595 117.896 10.2712 117.263 9.69458ZM116.982 13.1577H122.467V31.7885H116.982V13.1577Z" fill="#FF5710"/>
<path d="M135.461 13.5718C136.573 13.1105 137.857 12.8799 139.312 12.8799V17.8673C138.701 17.8241 138.292 17.7988 138.08 17.7988C136.511 17.7988 135.278 18.2313 134.386 19.0998C133.494 19.9646 133.051 21.2619 133.051 22.9953V31.7918H127.565V13.161H132.806V15.6186C133.464 14.7141 134.349 14.0366 135.461 13.5718Z" fill="#FF5710"/>
<path d="M160.838 23.9974H146.524C146.783 25.1506 147.39 26.0623 148.352 26.7326C149.314 27.4028 150.51 27.738 151.94 27.738C152.924 27.738 153.798 27.5938 154.558 27.3055C155.319 27.0172 156.029 26.5596 156.687 25.9362L159.605 29.0533C157.824 31.0605 155.22 32.0659 151.797 32.0659C149.665 32.0659 147.774 31.6551 146.136 30.8371C144.494 30.0191 143.229 28.8803 142.336 27.4245C141.444 25.9686 141.001 24.3181 141.001 22.4731C141.001 20.6496 141.44 19.0064 142.322 17.5397C143.199 16.073 144.41 14.9307 145.946 14.1126C147.482 13.2946 149.197 12.8838 151.099 12.8838C152.949 12.8838 154.628 13.2766 156.127 14.0622C157.627 14.8478 158.804 15.9721 159.66 17.4388C160.516 18.9055 160.944 20.6064 160.944 22.5451C160.944 22.61 160.907 23.0965 160.838 23.9974ZM148.001 18.0046C147.156 18.6965 146.641 19.6442 146.454 20.8442H155.773C155.586 19.6658 155.07 18.7253 154.226 18.0226C153.381 17.3163 152.35 16.9667 151.132 16.9667C149.888 16.9667 148.846 17.3127 148.001 18.0046Z" fill="#FF5710"/>
</svg>
