<svg width="28" height="20" viewBox="0 0 28 20" fill="none" xmlns="http://www.w3.org/2000/svg">
<g clip-path="url(#clip0_501_6)">
<path fill-rule="evenodd" clip-rule="evenodd" d="M13.9896 20C21.6833 20 27.9884 19.9821 28.0009 19.9603C28.0133 19.9385 27.0033 17.6878 25.7563 14.9588L23.4889 9.99693L25.7551 5.03815C27.0015 2.31079 28.0116 0.0615343 27.9998 0.0396818C27.9879 0.0178827 21.6833 -3.363e-07 13.9896 0C6.29582 3.36309e-07 0.000976562 6.11466e-07 0.000976562 6.11466e-07C0.000976562 6.11466e-07 0.00097683 6.09476 0.000977 10C0.000977171 13.9052 0.000977436 20 0.000977436 20H13.9896Z" fill="#FF5710"/>
<path d="M19 8.96915L15.2162 8.40863L13.4805 5L11.7782 8.42544L8 9.02281L10.7317 11.7003L10.1324 15.4782L13.523 13.7076L16.9307 15.445L16.2945 11.6732L19 8.96915Z" fill="#2B2B2B"/>
</g>
<defs>
<clipPath id="clip0_501_6">
<rect width="28" height="20" fill="white"/>
</clipPath>
</defs>
</svg>
