<svg width="18" height="19" viewBox="0 0 18 19" fill="none" xmlns="http://www.w3.org/2000/svg">
<g clip-path="url(#clip0_502_4)">
<path d="M9.00327 5.87842C6.45102 5.87842 4.38477 7.94688 4.38477 10.4968C4.38477 13.049 6.45327 15.1153 9.00327 15.1153C11.5555 15.1153 13.6218 13.0468 13.6218 10.4968C13.6218 7.94463 11.5533 5.87842 9.00327 5.87842ZM9.00327 13.4945C7.34652 13.4945 6.00552 12.1528 6.00552 10.4968C6.00552 8.84087 7.34727 7.49914 9.00327 7.49914C10.6593 7.49914 12.001 8.84087 12.001 10.4968C12.0018 12.1528 10.66 13.4945 9.00327 13.4945Z" fill="#8D8D8D"/>
<path d="M12.7112 1.55654C11.0552 1.47929 6.95342 1.48304 5.29592 1.55654C3.83942 1.62479 2.55467 1.97653 1.51892 3.01226C-0.21208 4.74323 0.0091705 7.07569 0.0091705 10.4964C0.0091705 13.9973 -0.18583 16.2758 1.51892 17.9805C3.25667 19.7175 5.62292 19.4902 9.00317 19.4902C12.4712 19.4902 13.6682 19.4925 14.8944 19.0177C16.5617 18.3705 17.8202 16.8803 17.9432 14.2036C18.0212 12.5468 18.0167 8.44592 17.9432 6.78845C17.7947 3.62875 16.0989 1.71254 12.7112 1.55654ZM15.3324 16.8353C14.1977 17.97 12.6234 17.8688 8.98142 17.8688C5.23142 17.8688 3.72767 17.9243 2.63042 16.824C1.36667 15.5663 1.59542 13.5466 1.59542 10.4844C1.59542 6.3407 1.17017 3.35651 5.32892 3.14351C6.28442 3.10976 6.56567 3.09851 8.97092 3.09851L9.00467 3.12101C13.0014 3.12101 16.1372 2.70252 16.3254 6.86045C16.3682 7.80918 16.3779 8.09417 16.3779 10.4956C16.3772 14.2021 16.4477 15.7148 15.3324 16.8353Z" fill="#8D8D8D"/>
<path d="M13.8044 6.7754C14.4004 6.7754 14.8836 6.29221 14.8836 5.69617C14.8836 5.10013 14.4004 4.61694 13.8044 4.61694C13.2083 4.61694 12.7251 5.10013 12.7251 5.69617C12.7251 6.29221 13.2083 6.7754 13.8044 6.7754Z" fill="#8D8D8D"/>
</g>
<defs>
<clipPath id="clip0_502_4">
<rect width="18" height="19" fill="white"/>
</clipPath>
</defs>
</svg>
