<svg width="112" height="30" viewBox="0 0 112 30" fill="none" xmlns="http://www.w3.org/2000/svg">
<path d="M27.8418 4.97957H33.604C34.9815 4.97957 36.1987 5.24368 37.2558 5.77381C38.3129 6.30394 39.1345 7.04878 39.7205 8.01022C40.3065 8.97167 40.5986 10.0927 40.5986 11.3696C40.5986 12.6465 40.3065 13.7675 39.7205 14.729C39.1345 15.6904 38.3129 16.4372 37.2558 16.9654C36.1987 17.4955 34.9815 17.7596 33.604 17.7596H27.8418V4.97957ZM33.4589 15.3332C34.7271 15.3332 35.7389 14.9779 36.4946 14.2653C37.2502 13.5547 37.627 12.5895 37.627 11.3715C37.627 10.1535 37.2502 9.18829 36.4946 8.47765C35.7389 7.76511 34.7271 7.40979 33.4589 7.40979H30.7776V15.3351H33.4589V15.3332Z" fill="white"/>
<path d="M52.1062 13.6537H44.731C44.8648 14.2617 45.1776 14.7424 45.6732 15.0958C46.1688 15.4492 46.7849 15.626 47.5217 15.626C48.0286 15.626 48.4789 15.55 48.8708 15.3979C49.2628 15.2459 49.6283 15.0046 49.9675 14.6759L51.4712 16.3195C50.5535 17.3778 49.2119 17.908 47.4482 17.908C46.3496 17.908 45.3755 17.6914 44.5313 17.26C43.6852 16.8287 43.0333 16.2283 42.5735 15.4606C42.1137 14.693 41.8857 13.8228 41.8857 12.8499C41.8857 11.8885 42.1119 11.022 42.566 10.2487C43.0182 9.47533 43.6419 8.873 44.4333 8.44168C45.2247 8.01036 46.1085 7.79375 47.0883 7.79375C48.0417 7.79375 48.9066 8.00086 49.6792 8.41508C50.4518 8.8293 51.0585 9.42213 51.4994 10.1955C51.9404 10.9688 52.1608 11.8657 52.1608 12.8879C52.1608 12.9221 52.142 13.1786 52.1062 13.6537ZM45.4923 10.4938C45.057 10.8586 44.7913 11.3583 44.6952 11.9911H49.4964C49.4003 11.3697 49.1346 10.8738 48.6994 10.5033C48.2641 10.1309 47.7327 9.94656 47.1053 9.94656C46.4646 9.94656 45.9257 10.129 45.4923 10.4938Z" fill="white"/>
<path d="M55.9555 17.2599C55.1283 16.8286 54.482 16.2282 54.0165 15.4605C53.5511 14.6929 53.3193 13.8227 53.3193 12.8498C53.3193 11.877 53.5511 11.0067 54.0165 10.2391C54.482 9.47144 55.1283 8.87291 55.9555 8.43969C56.7827 8.00836 57.7154 7.79175 58.7556 7.79175C59.7825 7.79175 60.6795 8.00836 61.4464 8.43969C62.2133 8.87101 62.7729 9.48854 63.1234 10.2923L60.9301 11.4798C60.4232 10.5792 59.6921 10.1289 58.7367 10.1289C58 10.1289 57.3894 10.3721 56.9071 10.8585C56.4247 11.3468 56.1816 12.01 56.1816 12.8498C56.1816 13.6897 56.4228 14.3528 56.9071 14.8411C57.3894 15.3275 58 15.5708 58.7367 15.5708C59.7034 15.5708 60.4345 15.1204 60.9301 14.2198L63.1234 15.4244C62.7729 16.2035 62.2152 16.8115 61.4464 17.2504C60.6795 17.6894 59.7825 17.9079 58.7556 17.9079C57.7173 17.9079 56.7846 17.6932 55.9555 17.2599Z" fill="white"/>
<path d="M66.5042 17.2599C65.6882 16.8286 65.0514 16.2282 64.5916 15.4605C64.1318 14.6929 63.9038 13.8227 63.9038 12.8498C63.9038 11.877 64.1337 11.0067 64.5916 10.2391C65.0514 9.47143 65.6882 8.8729 66.5042 8.43968C67.3201 8.00836 68.2415 7.79175 69.2684 7.79175C70.2954 7.79175 71.213 8.00836 72.0233 8.43968C72.8317 8.871 73.4667 9.47143 73.9264 10.2391C74.3862 11.0067 74.6142 11.877 74.6142 12.8498C74.6142 13.8227 74.3843 14.6929 73.9264 15.4605C73.4667 16.2282 72.8335 16.8267 72.0233 17.2599C71.2149 17.6932 70.2954 17.9079 69.2684 17.9079C68.2396 17.9079 67.3182 17.6932 66.5042 17.2599ZM71.051 14.8297C71.5164 14.3376 71.7482 13.6764 71.7482 12.8498C71.7482 12.0233 71.5145 11.362 71.051 10.868C70.5856 10.3759 69.9901 10.1289 69.2665 10.1289C68.5411 10.1289 67.9438 10.374 67.4727 10.868C67.0016 11.362 66.7661 12.0214 66.7661 12.8498C66.7661 13.6783 67.0016 14.3376 67.4727 14.8297C67.9438 15.3237 68.5411 15.5689 69.2665 15.5689C69.992 15.5708 70.5874 15.3237 71.051 14.8297Z" fill="white"/>
<path d="M28.6715 25.8452C28.3643 25.6704 28.125 25.4291 27.9479 25.1213C27.7726 24.8135 27.6841 24.4638 27.6841 24.0743C27.6841 23.6848 27.7726 23.3371 27.9479 23.0274C28.1231 22.7195 28.3643 22.4782 28.6715 22.3072C28.9767 22.1343 29.3215 22.0488 29.7022 22.0488C30.0828 22.0488 30.4276 22.1343 30.7329 22.3072C31.0382 22.4782 31.2794 22.7195 31.4508 23.0274C31.6242 23.3371 31.7109 23.6848 31.7109 24.0743C31.7109 24.4638 31.6242 24.8135 31.4508 25.1213C31.2775 25.4291 31.0382 25.6704 30.7329 25.8452C30.4276 26.02 30.0828 26.1074 29.7022 26.1074C29.3197 26.1074 28.9767 26.02 28.6715 25.8452ZM30.4578 25.4348C30.682 25.3056 30.8554 25.1232 30.9816 24.8857C31.106 24.6481 31.1701 24.3764 31.1701 24.0743C31.1701 23.7703 31.1079 23.5005 30.9816 23.263C30.8573 23.0255 30.682 22.8412 30.4578 22.7119C30.2336 22.5827 29.9829 22.5181 29.7022 22.5181C29.4214 22.5181 29.1689 22.5827 28.9447 22.7119C28.7205 22.8412 28.5452 23.0236 28.4171 23.263C28.2889 23.5005 28.2249 23.7703 28.2249 24.0743C28.2249 24.3783 28.2889 24.6481 28.4171 24.8857C28.5452 25.1232 28.7205 25.3075 28.9447 25.4348C29.1689 25.564 29.4195 25.6286 29.7022 25.6286C29.9829 25.6286 30.2354 25.564 30.4578 25.4348Z" fill="white"/>
<path d="M35.949 22.5577H33.6841V26.0691H33.1489V22.0789H35.949V22.5577Z" fill="white"/>
<path d="M37.439 25.8452C37.1319 25.6703 36.8926 25.429 36.7155 25.1212C36.5402 24.8134 36.4517 24.4638 36.4517 24.0743C36.4517 23.6847 36.5402 23.337 36.7155 23.0273C36.8907 22.7195 37.1319 22.4782 37.439 22.3072C37.7443 22.1343 38.0891 22.0488 38.4698 22.0488C38.8504 22.0488 39.1952 22.1343 39.5005 22.3072C39.8057 22.4782 40.0469 22.7195 40.2184 23.0273C40.3918 23.337 40.4784 23.6847 40.4784 24.0743C40.4784 24.4638 40.3918 24.8134 40.2184 25.1212C40.045 25.429 39.8057 25.6703 39.5005 25.8452C39.1952 26.02 38.8504 26.1074 38.4698 26.1074C38.0891 26.1074 37.7462 26.02 37.439 25.8452ZM39.2273 25.4347C39.4515 25.3055 39.6248 25.1231 39.7511 24.8856C39.8755 24.6481 39.9395 24.3764 39.9395 24.0743C39.9395 23.7702 39.8773 23.5004 39.7511 23.2629C39.6267 23.0254 39.4515 22.8411 39.2273 22.7119C39.003 22.5827 38.7524 22.5181 38.4716 22.5181C38.1909 22.5181 37.9384 22.5827 37.7141 22.7119C37.4899 22.8411 37.3147 23.0235 37.1865 23.2629C37.0584 23.5004 36.9943 23.7702 36.9943 24.0743C36.9943 24.3783 37.0584 24.6481 37.1865 24.8856C37.3147 25.1231 37.4899 25.3074 37.7141 25.4347C37.9384 25.5639 38.189 25.6285 38.4716 25.6285C38.7524 25.6285 39.003 25.5639 39.2273 25.4347Z" fill="white"/>
<path d="M41.918 22.0789H42.4531V23.846H44.9442V22.0789H45.4793V26.0691H44.9442V24.3096H42.4531V26.0691H41.918V22.0789Z" fill="white"/>
<path d="M50.126 23.8232C50.3842 24.0398 50.5142 24.3533 50.5142 24.7638C50.5142 25.1894 50.3747 25.5143 50.0959 25.7423C49.817 25.9703 49.4137 26.0805 48.888 26.0767L47.292 26.0691V22.0789H47.8271V23.4755L48.9935 23.4907C49.4891 23.4945 49.8679 23.6066 50.126 23.8232ZM49.6889 25.4421C49.8773 25.2882 49.9715 25.0621 49.9715 24.7638C49.9715 24.4711 49.8792 24.2526 49.6926 24.112C49.5061 23.9714 49.2291 23.8973 48.8579 23.8916L47.8271 23.8764V25.6511L48.8579 25.6663C49.2234 25.672 49.5004 25.5979 49.6889 25.4421Z" fill="white"/>
<path d="M55.5266 24.2944H54.624V26.0691H54.0889V22.0789H54.624V23.8308H55.5341L56.9266 22.0789H57.507L55.9487 24.0132L57.6201 26.0691H56.9869L55.5266 24.2944Z" fill="white"/>
<path d="M61.2324 22.44C61.5075 22.7003 61.647 23.086 61.647 23.5972V26.0692H61.1344V25.4479C61.0138 25.655 60.8367 25.8165 60.6049 25.9324C60.3713 26.0483 60.0943 26.1072 59.7739 26.1072C59.333 26.1072 58.9806 26.0008 58.7206 25.788C58.4605 25.5752 58.3286 25.2959 58.3286 24.9462C58.3286 24.608 58.4511 24.3344 58.6942 24.1273C58.9373 23.9202 59.3254 23.8157 59.8568 23.8157H61.1137V23.5725C61.1137 23.2285 61.0176 22.9663 60.8273 22.7877C60.637 22.6091 60.3581 22.5179 59.9925 22.5179C59.7419 22.5179 59.5007 22.5597 59.2689 22.6433C59.039 22.7269 58.8393 22.8409 58.6753 22.9872L58.4341 22.5863C58.6358 22.4134 58.8751 22.2823 59.1577 22.1873C59.4385 22.0942 59.7343 22.0467 60.0453 22.0467C60.5597 22.0486 60.9573 22.1797 61.2324 22.44ZM60.6313 25.4726C60.8461 25.3339 61.0082 25.1324 61.1137 24.8702V24.2185H59.87C59.1935 24.2185 58.8544 24.456 58.8544 24.931C58.8544 25.1628 58.9429 25.3472 59.1182 25.4802C59.2934 25.6132 59.5403 25.6816 59.8568 25.6816C60.1564 25.6816 60.4146 25.6132 60.6313 25.4726Z" fill="white"/>
<path d="M64.8015 24.2944H63.8989V26.0691H63.3638V22.0789H63.8989V23.8308H64.809L66.2015 22.0789H66.7818L65.2235 24.0132L66.8949 26.0691H66.2636L64.8015 24.2944Z" fill="white"/>
<path d="M70.2954 22.0789H70.8306V25.2502L73.4724 22.0789H73.9473V26.0691H73.4121V22.8979L70.7778 26.0691H70.2954V22.0789Z" fill="white"/>
<path d="M76.373 25.849C76.064 25.678 75.8228 25.4367 75.6456 25.125C75.4704 24.8134 75.3818 24.4638 75.3818 24.0743C75.3818 23.6848 75.4704 23.337 75.6456 23.0273C75.8209 22.7195 76.064 22.4782 76.373 22.3072C76.682 22.1343 77.0325 22.0488 77.4225 22.0488C77.7636 22.0488 78.0689 22.1153 78.3364 22.2502C78.604 22.3832 78.8169 22.5808 78.9715 22.8373L78.572 23.1109C78.442 22.9133 78.2761 22.7651 78.0745 22.6663C77.8729 22.5675 77.6562 22.5181 77.4207 22.5181C77.1342 22.5181 76.878 22.5827 76.6481 22.7119C76.4201 22.8411 76.2411 23.0235 76.1129 23.2629C75.9848 23.5004 75.9208 23.7703 75.9208 24.0743C75.9208 24.3821 75.9848 24.6538 76.1129 24.8894C76.2411 25.125 76.4182 25.3074 76.6481 25.4348C76.8761 25.564 77.1342 25.6286 77.4207 25.6286C77.6562 25.6286 77.8748 25.5811 78.0745 25.4842C78.2761 25.3873 78.4401 25.2409 78.572 25.0433L78.9715 25.3169C78.8151 25.5754 78.6021 25.7711 78.3327 25.9041C78.0613 26.0371 77.758 26.1055 77.4225 26.1055C77.0325 26.1074 76.682 26.0219 76.373 25.849Z" fill="white"/>
<path d="M81.7355 24.2944H80.833V26.0691H80.2979V22.0789H80.833V23.8308H81.7431L83.1356 22.0789H83.7159L82.1576 24.0132L83.829 26.0691H83.1977L81.7355 24.2944Z" fill="white"/>
<path d="M88.1045 22.0791L86.1241 26.5462C85.964 26.9205 85.7774 27.1866 85.5664 27.3424C85.3553 27.4982 85.1028 27.578 84.8051 27.578C84.6148 27.578 84.4358 27.5476 84.27 27.4868C84.1041 27.426 83.9609 27.3348 83.8403 27.2132L84.0891 26.8122C84.2907 27.0137 84.53 27.1163 84.8108 27.1163C84.9916 27.1163 85.1462 27.065 85.2743 26.9643C85.4024 26.8635 85.5211 26.6906 85.6323 26.4474L85.8057 26.0598L84.0363 22.0772H84.5941L86.0845 25.467L87.575 22.0772H88.1045V22.0791Z" fill="white"/>
<path d="M89.727 25.849C89.418 25.678 89.1768 25.4367 88.9996 25.125C88.8244 24.8134 88.7358 24.4638 88.7358 24.0743C88.7358 23.6848 88.8244 23.337 88.9996 23.0273C89.1749 22.7195 89.418 22.4782 89.727 22.3072C90.036 22.1343 90.3865 22.0488 90.7765 22.0488C91.1176 22.0488 91.4229 22.1153 91.6904 22.2502C91.958 22.3832 92.1709 22.5808 92.3254 22.8373L91.926 23.1109C91.7959 22.9133 91.6301 22.7651 91.4285 22.6663C91.2269 22.5675 91.0102 22.5181 90.7747 22.5181C90.4882 22.5181 90.232 22.5827 90.0021 22.7119C89.7741 22.8411 89.5951 23.0235 89.467 23.2629C89.3388 23.5004 89.2748 23.7703 89.2748 24.0743C89.2748 24.3821 89.3388 24.6538 89.467 24.8894C89.5951 25.125 89.7722 25.3074 90.0021 25.4348C90.2301 25.564 90.4882 25.6286 90.7747 25.6286C91.0102 25.6286 91.2288 25.5811 91.4285 25.4842C91.6301 25.3873 91.7941 25.2409 91.926 25.0433L92.3254 25.3169C92.169 25.5754 91.9561 25.7711 91.6866 25.9041C91.4153 26.0371 91.1119 26.1055 90.7765 26.1055C90.3846 26.1074 90.036 26.0219 89.727 25.849Z" fill="white"/>
<path d="M94.1909 25.849C93.8818 25.678 93.6406 25.4367 93.4635 25.125C93.2883 24.8134 93.1997 24.4638 93.1997 24.0743C93.1997 23.6848 93.2883 23.337 93.4635 23.0273C93.6388 22.7195 93.8818 22.4782 94.1909 22.3072C94.4999 22.1343 94.8504 22.0488 95.2404 22.0488C95.5815 22.0488 95.8867 22.1153 96.1543 22.2502C96.4219 22.3832 96.6348 22.5808 96.7893 22.8373L96.3899 23.1109C96.2598 22.9133 96.094 22.7651 95.8924 22.6663C95.6908 22.5675 95.4741 22.5181 95.2385 22.5181C94.9521 22.5181 94.6959 22.5827 94.466 22.7119C94.238 22.8411 94.059 23.0235 93.9308 23.2629C93.8027 23.5004 93.7386 23.7703 93.7386 24.0743C93.7386 24.3821 93.8027 24.6538 93.9308 24.8894C94.059 25.125 94.2361 25.3074 94.466 25.4348C94.694 25.564 94.9521 25.6286 95.2385 25.6286C95.4741 25.6286 95.6927 25.5811 95.8924 25.4842C96.094 25.3873 96.258 25.2409 96.3899 25.0433L96.7893 25.3169C96.6329 25.5754 96.42 25.7711 96.1505 25.9041C95.8792 26.0371 95.5758 26.1055 95.2404 26.1055C94.8485 26.1074 94.498 26.0219 94.1909 25.849Z" fill="white"/>
<path d="M100.826 22.5579H99.3276V26.0693H98.7925V22.5579H97.2944V22.0809H100.826V22.5579Z" fill="white"/>
<path d="M105.222 24.9842C105.222 25.3338 105.094 25.6017 104.837 25.7879C104.581 25.9741 104.2 26.0691 103.694 26.0691H101.894V22.0789H103.641C104.093 22.0789 104.447 22.1682 104.702 22.3449C104.958 22.5216 105.086 22.7744 105.086 23.1031C105.086 23.3197 105.028 23.5059 104.909 23.6598C104.79 23.8137 104.626 23.9296 104.415 24.0037C104.952 24.1329 105.222 24.4578 105.222 24.9842ZM102.412 23.8536H103.601C103.906 23.8536 104.142 23.7966 104.306 23.6788C104.468 23.5629 104.551 23.3938 104.551 23.1715C104.551 22.9492 104.47 22.782 104.306 22.6717C104.142 22.5615 103.908 22.5045 103.601 22.5045H102.412V23.8536ZM104.438 25.4763C104.609 25.3661 104.694 25.1913 104.694 24.9538C104.694 24.7163 104.617 24.5414 104.46 24.4274C104.304 24.3134 104.059 24.2564 103.724 24.2564H102.414V25.6454H103.671C104.012 25.6435 104.268 25.5884 104.438 25.4763Z" fill="white"/>
<path d="M107.366 25.8452C107.059 25.6703 106.819 25.429 106.642 25.1212C106.467 24.8134 106.378 24.4638 106.378 24.0743C106.378 23.6847 106.467 23.337 106.642 23.0273C106.817 22.7195 107.059 22.4782 107.366 22.3072C107.671 22.1343 108.016 22.0488 108.396 22.0488C108.777 22.0488 109.122 22.1343 109.427 22.3072C109.732 22.4782 109.974 22.7195 110.145 23.0273C110.318 23.337 110.405 23.6847 110.405 24.0743C110.405 24.4638 110.318 24.8134 110.145 25.1212C109.972 25.429 109.732 25.6703 109.427 25.8452C109.122 26.02 108.777 26.1074 108.396 26.1074C108.016 26.1074 107.673 26.02 107.366 25.8452ZM109.154 25.4347C109.378 25.3055 109.552 25.1231 109.678 24.8856C109.802 24.6481 109.866 24.3764 109.866 24.0743C109.866 23.7702 109.804 23.5004 109.678 23.2629C109.553 23.0254 109.378 22.8411 109.154 22.7119C108.93 22.5827 108.679 22.5181 108.398 22.5181C108.118 22.5181 107.865 22.5827 107.641 22.7119C107.417 22.8411 107.241 23.0235 107.113 23.2629C106.985 23.5004 106.921 23.7702 106.921 24.0743C106.921 24.3783 106.985 24.6481 107.113 24.8856C107.241 25.1231 107.417 25.3074 107.641 25.4347C107.865 25.5639 108.116 25.6285 108.398 25.6285C108.679 25.6285 108.93 25.5639 109.154 25.4347Z" fill="white"/>
<path d="M79.5095 7.35278V10.7312H85.381V13.1063H79.5095V17.7615H76.5737V4.97955H86.1611V7.35278H79.5095Z" fill="#FF5710"/>
<path d="M87.9191 6.11183C87.5931 5.80782 87.4292 5.4297 87.4292 4.97937C87.4292 4.52905 87.5931 4.15093 87.9191 3.84692C88.2451 3.5429 88.6672 3.39089 89.1873 3.39089C89.7054 3.39089 90.1294 3.5372 90.4554 3.82981C90.7814 4.12243 90.9453 4.48725 90.9453 4.92617C90.9453 5.4012 90.7814 5.79262 90.4554 6.10233C90.1294 6.41395 89.7054 6.56786 89.1873 6.56786C88.6672 6.56786 88.2451 6.41585 87.9191 6.11183ZM87.774 7.93783H90.6005V17.7613H87.774V7.93783Z" fill="#FF5710"/>
<path d="M97.2953 8.15646C97.8681 7.91325 98.5295 7.79164 99.2794 7.79164V10.4214C98.9648 10.3986 98.7537 10.3853 98.6444 10.3853C97.8361 10.3853 97.201 10.6133 96.7413 11.0712C96.2815 11.5272 96.0535 12.2113 96.0535 13.1252V17.7634H93.2271V7.93985H95.9273V9.23572C96.2664 8.75879 96.7224 8.40157 97.2953 8.15646Z" fill="#FF5710"/>
<path d="M110.371 13.6533H102.996C103.129 14.2613 103.442 14.742 103.938 15.0955C104.433 15.4489 105.05 15.6256 105.786 15.6256C106.293 15.6256 106.744 15.5496 107.136 15.3976C107.527 15.2456 107.893 15.0043 108.232 14.6755L109.736 16.3191C108.818 17.3775 107.477 17.9076 105.713 17.9076C104.614 17.9076 103.64 17.691 102.796 17.2597C101.95 16.8283 101.298 16.2279 100.838 15.4603C100.378 14.6926 100.15 13.8224 100.15 12.8495C100.15 11.8881 100.377 11.0216 100.831 10.2483C101.283 9.47496 101.907 8.87263 102.698 8.44131C103.489 8.00998 104.373 7.79337 105.353 7.79337C106.306 7.79337 107.171 8.00048 107.944 8.41471C108.716 8.82893 109.323 9.42176 109.764 10.1951C110.205 10.9684 110.426 11.8653 110.426 12.8875C110.426 12.9217 110.407 13.1783 110.371 13.6533ZM103.757 10.4934C103.322 10.8582 103.056 11.358 102.96 11.9907H107.761C107.665 11.3694 107.399 10.8734 106.964 10.5029C106.529 10.1305 105.997 9.94619 105.37 9.94619C104.729 9.94619 104.192 10.1286 103.757 10.4934Z" fill="#FF5710"/>
<path d="M12.6832 1C12.6832 1 7.33856 5.36788 6.21142 10.2148C5.08428 15.0618 7.0591 16.7056 7.66227 17.7013C8.26776 18.697 10.3637 20.3831 11.4233 21.1768C12.4829 21.9705 15.1843 24.0112 15.0329 26.5826C20.9737 23.0531 20.5313 17.1071 18.1582 14.6297C18.1582 14.6297 19.134 18.0629 17.916 19.3498C18.4097 16.9921 17.1708 14.0261 15.7782 12.0958C14.3855 10.1655 11.6259 6.16161 12.6832 1Z" fill="#FF5710"/>
<path d="M4.85106 10.4686C4.85106 10.4686 0.193445 14.1461 0.293584 19.8549C0.393723 25.5636 6.80726 30.7464 13.5422 27.7781C13.9846 25.6247 11.2646 23.3492 10.4984 22.7597C9.64142 22.1046 2.32896 17.6427 4.85106 10.4686Z" fill="#FF5710"/>
</svg>
