<svg width="10" height="14" viewBox="0 0 10 14" fill="none" xmlns="http://www.w3.org/2000/svg">
<path d="M5.11489 3.5085C3.96755 3.5085 3.0341 4.52872 3.0341 5.78271C3.0341 7.03671 3.96755 8.05693 5.11489 8.05693C6.26223 8.05693 7.19567 7.03671 7.19567 5.78271C7.19567 4.52872 6.26225 3.5085 5.11489 3.5085ZM5.11489 7.09937C4.45063 7.09937 3.91022 6.50872 3.91022 5.78271C3.91022 5.05671 4.45063 4.46606 5.11489 4.46606C5.77914 4.46606 6.31956 5.05671 6.31956 5.78271C6.31956 6.50872 5.77914 7.09937 5.11489 7.09937Z" fill="#8B8B8B"/>
<path d="M5.11513 0.875C2.63926 0.875 0.625 3.07653 0.625 5.78254V5.9182C0.625 7.28675 1.34289 8.88155 2.75878 10.6582C3.7852 11.9462 4.79728 12.8443 4.83983 12.8819L5.11513 13.125L5.39043 12.8819C5.43301 12.8443 6.44508 11.9462 7.47148 10.6582C8.88735 8.88155 9.60526 7.28677 9.60526 5.91822V5.78256C9.60526 3.07653 7.591 0.875 5.11513 0.875ZM8.72915 5.91822C8.72915 8.231 6.00263 11.0307 5.11513 11.8806C4.22739 11.0304 1.50111 8.23084 1.50111 5.91822V5.78256C1.50111 3.60455 3.12237 1.83258 5.11513 1.83258C7.10789 1.83258 8.72915 3.60455 8.72915 5.78256V5.91822Z" fill="#8B8B8B"/>
<path d="M5.11489 3.5085C3.96755 3.5085 3.0341 4.52872 3.0341 5.78271C3.0341 7.03671 3.96755 8.05693 5.11489 8.05693C6.26223 8.05693 7.19567 7.03671 7.19567 5.78271C7.19567 4.52872 6.26225 3.5085 5.11489 3.5085ZM5.11489 7.09937C4.45063 7.09937 3.91022 6.50872 3.91022 5.78271C3.91022 5.05671 4.45063 4.46606 5.11489 4.46606C5.77914 4.46606 6.31956 5.05671 6.31956 5.78271C6.31956 6.50872 5.77914 7.09937 5.11489 7.09937Z" stroke="#8B8B8B" stroke-width="0.5"/>
<path d="M5.11513 0.875C2.63926 0.875 0.625 3.07653 0.625 5.78254V5.9182C0.625 7.28675 1.34289 8.88155 2.75878 10.6582C3.7852 11.9462 4.79728 12.8443 4.83983 12.8819L5.11513 13.125L5.39043 12.8819C5.43301 12.8443 6.44508 11.9462 7.47148 10.6582C8.88735 8.88155 9.60526 7.28677 9.60526 5.91822V5.78256C9.60526 3.07653 7.591 0.875 5.11513 0.875ZM8.72915 5.91822C8.72915 8.231 6.00263 11.0307 5.11513 11.8806C4.22739 11.0304 1.50111 8.23084 1.50111 5.91822V5.78256C1.50111 3.60455 3.12237 1.83258 5.11513 1.83258C7.10789 1.83258 8.72915 3.60455 8.72915 5.78256V5.91822Z" stroke="#8B8B8B" stroke-width="0.5"/>
</svg>
