<svg width="12" height="20" viewBox="0 0 12 20" fill="none" xmlns="http://www.w3.org/2000/svg">
<path fill-rule="evenodd" clip-rule="evenodd" d="M5.2159 0.0526535C4.79774 0.131555 4.4806 0.223743 4.13023 0.368259C2.84501 0.898373 1.77581 2.05317 1.32454 3.3986C1.1802 3.82891 1.11724 4.13638 1.07147 4.63441C0.988256 5.53922 1.15292 6.44239 1.55277 7.27443C1.6437 7.46369 1.80022 7.74491 1.90063 7.89935C2.2131 8.38022 2.84249 9.00725 3.34733 9.3406C3.57259 9.48938 4.07093 9.73722 4.33718 9.83288C4.91832 10.0417 5.34912 10.1154 5.98733 10.1152C6.55272 10.115 7.05 10.0338 7.5655 9.8575C8.33365 9.59481 8.9761 9.17611 9.56381 8.55514C10.206 7.8766 10.6059 7.13327 10.8147 6.22975C11.0395 5.2575 10.9547 4.12595 10.5859 3.17538C10.3308 2.51794 9.86956 1.8339 9.34088 1.32887C9.02573 1.0278 8.57438 0.706571 8.18331 0.50496C7.83087 0.32324 7.21753 0.123192 6.8014 0.0542166C6.36934 -0.0174161 5.59126 -0.0181977 5.2159 0.0526535ZM6.59127 2.67422C6.71735 2.70494 6.94944 2.79459 7.107 2.87341C7.32202 2.98096 7.46991 3.09546 7.69948 3.33221C7.91274 3.55203 8.04207 3.72531 8.12612 3.90386C8.33835 4.35464 8.38648 4.57599 8.38476 5.0936C8.38343 5.49889 8.3696 5.60147 8.28272 5.8492C8.22744 6.00684 8.12509 6.23233 8.05532 6.35031C7.89513 6.62117 7.5739 6.95968 7.32118 7.12393C7.02551 7.31612 6.64636 7.45544 6.29572 7.50078C5.35317 7.62259 4.4079 7.15047 3.92362 6.316C3.72625 5.97589 3.62806 5.62981 3.60453 5.19129C3.5795 4.72457 3.65209 4.35335 3.84808 3.94603C3.95376 3.72644 4.07258 3.56387 4.29814 3.33029C4.54597 3.07365 4.66674 2.98256 4.92936 2.8543C5.46965 2.5904 6.008 2.53209 6.59127 2.67422ZM0.860537 10.1684C0.623399 10.2818 0.369718 10.5595 0.236765 10.851C0.15707 11.0257 0.135866 11.1308 0.136745 11.3463C0.138196 11.6994 0.245361 11.9336 0.54313 12.2342C0.850603 12.5445 1.49069 12.9995 1.98017 13.2556C2.66813 13.6155 3.59689 13.8978 4.50911 14.024C4.68771 14.0488 4.87526 14.0773 4.92588 14.0875C5.00692 14.1038 4.79171 14.3383 3.12655 16.0479C1.65405 17.5598 1.21489 18.0331 1.14337 18.1852C1.06975 18.3419 1.05168 18.4426 1.05213 18.6933C1.05282 19.0716 1.13588 19.2847 1.39155 19.5643C1.63113 19.8263 1.93497 19.9773 2.2604 19.9961C2.4758 20.0086 2.55202 19.9943 2.73919 19.9069C2.93159 19.817 3.16181 19.5989 4.4343 18.3004C5.68815 17.021 5.92311 16.7979 6.01659 16.7979C6.11035 16.7979 6.33618 17.0144 7.56229 18.28C9.19219 19.9623 9.20999 19.9764 9.70497 19.9805C9.93879 19.9824 10.0315 19.9637 10.2091 19.8785C10.4748 19.7511 10.7342 19.4932 10.8767 19.2145C10.9675 19.0368 10.9834 18.9595 10.9834 18.6933C10.9835 18.4405 10.9663 18.3475 10.894 18.2076C10.8373 18.098 10.114 17.3185 8.91784 16.0778C7.43293 14.5376 7.04538 14.1155 7.09775 14.095C7.13439 14.0807 7.36206 14.0387 7.6037 14.0017C8.55802 13.8555 9.29079 13.6268 10.0273 13.2455C10.7856 12.8528 11.5776 12.2081 11.7785 11.8199C11.8431 11.6951 11.8616 11.5931 11.8608 11.3659C11.8601 11.1338 11.8391 11.0266 11.76 10.8509C11.6291 10.5602 11.3756 10.2822 11.1377 10.1684C10.9935 10.0994 10.881 10.0772 10.6792 10.0779C10.5201 10.0784 10.3344 10.1073 10.2207 10.1491C10.1157 10.1877 9.8492 10.3374 9.62856 10.4818C8.64165 11.1274 7.66376 11.4659 6.51398 11.5601C5.67554 11.6288 4.71767 11.5117 3.92828 11.2441C3.46279 11.0863 2.83015 10.7758 2.33143 10.4602C2.11079 10.3206 1.84554 10.1771 1.742 10.1413C1.63843 10.1055 1.44072 10.0764 1.30264 10.0766C1.11995 10.0769 0.999526 10.1019 0.860537 10.1684Z" fill="#8A8B90"/>
</svg>
