<svg width="42" height="42" viewBox="0 0 42 42" fill="none" xmlns="http://www.w3.org/2000/svg">
<path d="M35.6864 14.0352C35.6859 14.0352 35.6854 14.0352 35.685 14.0352H0.601334C0.269618 14.0348 0.00035118 14.3034 3.43341e-07 14.6351C3.43341e-07 14.6355 3.43341e-07 14.6361 3.43341e-07 14.6365V31.4766C-0.000350493 31.8083 0.268215 32.0776 0.59993 32.078C0.600369 32.078 0.600895 32.078 0.601334 32.078H24.4582C24.7903 32.078 25.0595 31.8087 25.0595 31.4766C25.0595 31.1446 24.7903 30.8753 24.4582 30.8753H1.20267V15.2378H35.0836V16.7415C35.0833 17.0732 35.3518 17.3425 35.6835 17.3428C35.684 17.3428 35.6845 17.3428 35.685 17.3428C36.0167 17.3432 36.2859 17.0746 36.2863 16.7429C36.2863 16.7425 36.2863 16.7419 36.2863 16.7415V14.6365C36.2866 14.3048 36.0181 14.0356 35.6864 14.0352Z" fill="#FF5710"/>
<path d="M31.6063 11.2432L3.53936 4.92813C3.38359 4.89331 3.22036 4.92155 3.08538 5.00671C2.95057 5.09258 2.85523 5.22827 2.82015 5.38421L1.4168 11.6993C1.34471 12.0236 1.54924 12.345 1.87359 12.4171C2.19794 12.4892 2.51931 12.2846 2.5914 11.9603L3.86354 6.23394L31.3424 12.4164C31.3859 12.4265 31.4304 12.4315 31.475 12.4311C31.8071 12.4305 32.0758 12.1608 32.0753 11.8287C32.0748 11.548 31.8801 11.305 31.6063 11.2432Z" fill="#FF5710"/>
<path d="M28.1974 7.76349L11.3573 0.746763C11.0646 0.62476 10.7274 0.750096 10.5855 1.03375L9.18211 3.84044C9.02362 4.13356 9.13273 4.49975 9.42594 4.65824C9.71907 4.81673 10.0853 4.70762 10.2437 4.4144C10.25 4.40291 10.2558 4.39116 10.2613 4.37923V4.38064L11.4127 2.07634L27.7329 8.87625C28.0403 9.00448 28.3934 8.85941 28.5216 8.55208C28.6498 8.24492 28.5048 7.89181 28.1974 7.76349Z" fill="#FF5710"/>
<path d="M28.6236 16.8418H23.0545C22.7224 16.8418 22.4531 17.1111 22.4531 17.4431C22.4531 17.7752 22.7224 18.0445 23.0545 18.0445H28.6236C28.9557 18.0445 29.225 17.7752 29.225 17.4431C29.225 17.1111 28.9557 16.8418 28.6236 16.8418Z" fill="#FF5710"/>
<path d="M17.4403 16.8818C14.0301 16.8818 11.2656 19.6463 11.2656 23.0565C11.2691 26.4653 14.0316 29.2277 17.4403 29.2313C20.8506 29.2313 23.6151 26.4668 23.6151 23.0565C23.6151 19.6463 20.8506 16.8818 17.4403 16.8818ZM17.4403 28.1086C14.6501 28.1086 12.3883 25.8467 12.3883 23.0565C12.3914 20.2677 14.6515 18.0076 17.4403 18.0045C20.2305 18.0045 22.4924 20.2663 22.4924 23.0565C22.4924 25.8467 20.2305 28.1086 17.4403 28.1086Z" fill="#FF5710"/>
<path d="M34.2809 18.8462C30.562 18.8462 26.5625 19.7247 26.5625 21.6529V38.493C26.5625 40.4212 30.562 41.2997 34.2809 41.2997C37.9998 41.2997 41.9993 40.4212 41.9993 38.493V21.6529C41.9993 19.7247 37.9998 18.8462 34.2809 18.8462ZM40.5959 38.4825C40.49 38.8719 38.3857 39.8964 34.2809 39.8964C30.1761 39.8964 28.0718 38.8719 27.9658 38.493V37.39C29.459 38.1422 31.9254 38.493 34.2809 38.493C36.6364 38.493 39.1035 38.1387 40.5959 37.3893V38.4825ZM40.5959 35.6758C40.49 36.0652 38.3857 37.0897 34.2809 37.0897C30.1761 37.0897 28.0718 36.0652 27.9658 35.6863V34.5833C29.459 35.3355 31.9254 35.6863 34.2809 35.6863C36.6364 35.6863 39.1035 35.332 40.5959 34.5826V35.6758ZM40.5959 32.8691C40.49 33.2585 38.3857 34.283 34.2809 34.283C30.1761 34.283 28.0718 33.2585 27.9658 32.8796V31.7766C29.459 32.5288 31.9254 32.8796 34.2809 32.8796C36.6364 32.8796 39.1035 32.5253 40.5959 31.7759V32.8691ZM40.5959 30.0624C40.49 30.4518 38.3857 31.4763 34.2809 31.4763C30.1761 31.4763 28.0718 30.4518 27.9658 30.0729V28.9699C29.459 29.7221 31.9254 30.0729 34.2809 30.0729C36.6364 30.0729 39.1035 29.7186 40.5959 28.9692V30.0624ZM40.5959 27.2557C40.49 27.6452 38.3857 28.6696 34.2809 28.6696C30.1761 28.6696 28.0718 27.6452 27.9658 27.2663V26.1632C29.459 26.9119 31.9254 27.2663 34.2809 27.2663C36.6364 27.2663 39.1035 26.9119 40.5959 26.1625V27.2557ZM40.5959 24.449C40.49 24.8385 38.3857 25.8629 34.2809 25.8629C30.1761 25.8629 28.0718 24.8385 27.9658 24.4596V23.3565C29.459 24.1052 31.9254 24.4596 34.2809 24.4596C36.6364 24.4596 39.1035 24.1052 40.5959 23.3558V24.449ZM34.2809 23.0562C30.1824 23.0562 28.0788 22.0346 27.9658 21.6655V21.6613C28.0788 21.2705 30.1824 20.2495 34.2809 20.2495C38.3506 20.2495 40.4556 21.2557 40.5959 21.6529C40.4556 22.05 38.3506 23.0562 34.2809 23.0562Z" fill="#FF5710"/>
<path d="M11.8268 28.0678H6.52285L4.00806 25.3173V20.7564L6.78528 18.0445H11.8268C12.1589 18.0445 12.4281 17.7752 12.4281 17.4431C12.4281 17.1111 12.1589 16.8418 11.8268 16.8418H6.54109C6.38392 16.8414 6.2328 16.9027 6.12009 17.0123L2.98572 20.0695C2.86863 20.2063 2.80443 20.3806 2.80469 20.5607V25.5509C2.80469 25.701 2.86073 25.8456 2.96186 25.9565L5.81276 29.0747C5.92669 29.1995 6.0879 29.2706 6.25692 29.2705H11.8268C12.1589 29.2705 12.4281 29.0012 12.4281 28.6692C12.4281 28.3371 12.1589 28.0678 11.8268 28.0678Z" fill="#FF5710"/>
</svg>
