<svg width="40" height="40" viewBox="0 0 40 40" fill="none" xmlns="http://www.w3.org/2000/svg">
<path d="M39.4081 13.8555L26.1888 0.634222C25.8134 0.255253 25.3019 0.0423022 24.7684 0.0429703H24.7624C24.2324 0.0432208 23.7249 0.256255 23.3534 0.634222L9.33041 14.6552H2.00424C0.897315 14.6552 0 15.5526 0 16.6595V35.3657C0 36.4727 0.897315 37.37 2.00424 37.37H11.9025L13.8961 39.3655C14.2714 39.7445 14.7829 39.9575 15.3164 39.9568H15.3218C15.8519 39.9566 16.3598 39.7436 16.7314 39.3655L18.729 37.37H34.0721C35.179 37.37 36.0763 36.4727 36.0763 35.3657V20.0226L39.4047 16.6942C39.7846 16.3223 39.9991 15.8134 40 15.2819C40.002 14.7463 39.7887 14.2323 39.4081 13.8555ZM30.9094 7.24622L23.5004 14.6552H17.8271L28.0727 4.40955L30.9094 7.24622ZM24.2994 1.57622C24.5535 1.31591 24.9706 1.3109 25.231 1.56511C25.2347 1.56878 25.2385 1.57246 25.2421 1.57622L27.1281 3.46488L15.9371 14.6552H11.2197L24.2994 1.57622ZM15.7854 38.4235C15.6632 38.5511 15.4944 38.6235 15.3177 38.624C15.1387 38.6236 14.9673 38.5514 14.8421 38.4235L13.7925 37.37H16.8396L15.7854 38.4235ZM34.7402 35.3657C34.7402 35.7347 34.441 36.0338 34.0721 36.0338H2.00424C1.63529 36.0338 1.33616 35.7347 1.33616 35.3657V26.0126H34.7402V35.3657ZM34.7402 24.6764H1.33616V20.668H34.7402V24.6764ZM34.7402 19.3318H1.33616V16.6595C1.33616 16.2905 1.63529 15.9914 2.00424 15.9914H34.0721C34.441 15.9914 34.7402 16.2905 34.7402 16.6595V19.3318ZM38.4634 15.7462L36.0763 18.1333V16.6595C36.0763 15.5526 35.179 14.6552 34.0721 14.6552H25.3871L31.8514 8.19088L38.4607 14.8002C38.5891 14.926 38.6613 15.0982 38.6611 15.2779C38.661 15.4543 38.5897 15.6231 38.4634 15.7462Z" fill="#FF5710"/>
</svg>
