<svg width="49" height="50" viewBox="0 0 49 50" fill="none" xmlns="http://www.w3.org/2000/svg">
<path fill-rule="evenodd" clip-rule="evenodd" d="M24.4996 48.3053C37.4936 48.3053 48.0273 37.8412 48.0273 24.933C48.0273 12.0248 37.4936 1.56059 24.4996 1.56059C11.5057 1.56059 0.97198 12.0248 0.97198 24.933C0.97198 37.8412 11.5057 48.3053 24.4996 48.3053ZM24.4996 49.171C37.9748 49.171 48.8987 38.3192 48.8987 24.933C48.8987 11.5467 37.9748 0.694946 24.4996 0.694946C11.0244 0.694946 0.100586 11.5467 0.100586 24.933C0.100586 38.3192 11.0244 49.171 24.4996 49.171Z" fill="white"/>
<path d="M31.4707 24.933L21.014 30.9303L21.014 18.9356L31.4707 24.933Z" fill="white"/>
</svg>
