<svg width="20" height="20" viewBox="0 0 20 20" fill="none" xmlns="http://www.w3.org/2000/svg">
<path d="M19.7029 4.11429C19.0071 4.42262 18.2596 4.63096 17.4737 4.72512C18.2754 4.24512 18.8904 3.48346 19.1804 2.57679C18.4304 3.02179 17.5996 3.34512 16.7154 3.51846C16.0071 2.76512 14.9987 2.29346 13.8821 2.29346C11.7387 2.29346 10.0004 4.03179 10.0004 6.17679C10.0004 6.48012 10.0354 6.77512 10.1004 7.06012C6.87292 6.89762 4.01375 5.35179 2.09875 3.00346C1.76542 3.57846 1.57375 4.24512 1.57375 4.95512C1.57375 6.30179 2.25958 7.49096 3.30042 8.18679C2.66375 8.16596 2.06542 7.99179 1.54208 7.70096V7.75096C1.54208 9.63178 2.87958 11.2009 4.65625 11.5576C4.32958 11.6459 3.98708 11.6926 3.63375 11.6926C3.38375 11.6926 3.13958 11.6693 2.90292 11.6243C3.39708 13.1659 4.83042 14.2893 6.52958 14.3193C5.20042 15.3609 3.52625 15.9818 1.70792 15.9818C1.39458 15.9818 1.08542 15.9634 0.78125 15.9276C2.49958 17.0301 4.53958 17.6718 6.73125 17.6718C13.8729 17.6718 17.7771 11.7568 17.7771 6.62679C17.7771 6.46012 17.7729 6.29179 17.7654 6.12512C18.5237 5.57679 19.1821 4.89429 19.7012 4.11679L19.7029 4.11429Z" fill="#8A8B90"/>
</svg>
