<svg width="7" height="13" viewBox="0 0 7 13" fill="none" xmlns="http://www.w3.org/2000/svg">
<path fill-rule="evenodd" clip-rule="evenodd" d="M1.61211 0.202729C1.93243 0.068908 2.27613 0 2.62328 0C2.97043 0 3.31413 0.068908 3.63445 0.202729C3.95478 0.336551 4.24535 0.532623 4.48933 0.779581C4.73331 1.02654 4.92584 1.31947 5.05577 1.64139C5.18532 1.96238 5.25005 2.30583 5.24625 2.65193L5.24219 8.54519L5.24213 8.54897C5.23486 9.00891 5.04705 9.44755 4.71922 9.77024C4.3914 10.0929 3.94984 10.2738 3.48984 10.2738C3.02985 10.2738 2.58829 10.0929 2.26047 9.77024C1.93264 9.44755 1.74483 9.00891 1.73756 8.54897L1.7375 8.54502V4.04576C1.7375 3.76962 1.96136 3.54576 2.2375 3.54576C2.51364 3.54576 2.7375 3.76962 2.7375 4.04576V8.53663C2.7415 8.73286 2.82202 8.91982 2.96197 9.05757C3.10273 9.19613 3.29233 9.27379 3.48984 9.27379C3.68736 9.27379 3.87696 9.19613 4.01772 9.05757C4.1577 8.91979 4.23823 8.73277 4.24219 8.53648L4.24625 2.64568L4.24629 2.64282C4.24889 2.42802 4.20884 2.21485 4.12844 2.01565C4.04805 1.81645 3.92891 1.6352 3.77795 1.48239C3.62698 1.32957 3.44718 1.20825 3.24897 1.12544C3.05076 1.04264 2.83809 1 2.62328 1C2.40847 1 2.1958 1.04264 1.99759 1.12544C1.79939 1.20825 1.61959 1.32957 1.46862 1.48239C1.31765 1.6352 1.19851 1.81646 1.11812 2.01565C1.03773 2.21485 0.99767 2.42802 1.00028 2.64282L1.00031 2.64585V8.58438L1.00026 8.58799C0.995495 8.91728 1.05624 9.24423 1.17895 9.54983C1.30167 9.85543 1.48391 10.1336 1.71508 10.3681C1.94625 10.6027 2.22175 10.7889 2.52554 10.916C2.82934 11.0432 3.15537 11.1086 3.48469 11.1086C3.81401 11.1086 4.14004 11.0432 4.44384 10.916C4.74763 10.7889 5.02312 10.6027 5.25429 10.3681C5.48547 10.1336 5.66771 9.85543 5.79043 9.54983C5.91314 9.24423 5.97388 8.91728 5.96912 8.58799L5.96906 8.58438V3.03763C5.96906 2.76149 6.19292 2.53763 6.46906 2.53763C6.74521 2.53763 6.96906 2.76149 6.96906 3.03763V8.57729C6.97523 9.03783 6.89004 9.49503 6.7184 9.92246C6.5463 10.3511 6.29071 10.7412 5.9665 11.0701C5.64229 11.399 5.25592 11.6602 4.82986 11.8385C4.4038 12.0168 3.94655 12.1086 3.48469 12.1086C3.02283 12.1086 2.56558 12.0168 2.13952 11.8385C1.71346 11.6602 1.32709 11.399 1.00288 11.0701C0.678665 10.7412 0.423077 10.3511 0.250973 9.92246C0.0793346 9.49503 -0.00585585 9.03782 0.000312549 8.57728V2.65176C-0.00346493 2.30571 0.0612688 1.96233 0.190796 1.64139C0.320722 1.31947 0.513255 1.02654 0.757234 0.779581C1.00121 0.532623 1.29179 0.336551 1.61211 0.202729Z" fill="#FF5710"/>
</svg>
