<svg width="11" height="14" viewBox="0 0 11 14" fill="none" xmlns="http://www.w3.org/2000/svg">
<path d="M5.708 0.967958L10.4526 2.45799C10.6245 2.51197 10.7401 2.67663 10.7401 2.861V8.32446C10.7401 9.04854 10.46 9.78623 9.91332 10.5165C9.49588 11.0742 8.91956 11.6327 8.20141 12.1769C6.99539 13.0907 5.80825 13.6512 5.75715 13.6751M5.708 0.967958L5.59115 13.7122C5.6478 13.7122 5.70441 13.6999 5.75715 13.6751M5.708 0.967958C5.63187 0.944012 5.55055 0.944017 5.47437 0.967954L0.729757 2.45799C0.729756 2.45799 0.729755 2.45799 0.729753 2.45799C0.557815 2.51197 0.442187 2.67663 0.442187 2.861V8.32446C0.442187 9.04852 0.722268 9.78621 1.26893 10.5165C1.68637 11.0742 2.2627 11.6327 2.98087 12.1769C4.18678 13.0907 5.37385 13.6511 5.42514 13.6751L5.708 0.967958ZM5.75715 13.6751L5.73595 13.6298L5.75719 13.6751C5.75717 13.6751 5.75716 13.6751 5.75715 13.6751ZM9.93136 8.32446C9.93136 8.93742 9.63733 9.53589 9.21284 10.0797C8.78878 10.623 8.23833 11.1067 7.73452 11.4893C6.85032 12.1607 5.95341 12.6414 5.59118 12.8253C5.22894 12.6414 4.33201 12.1606 3.44781 11.4893C2.94398 11.1067 2.39353 10.623 1.96945 10.0797C1.54496 9.53589 1.25093 8.93742 1.25093 8.32446V3.1737L5.59115 1.81066L9.93136 3.1737V8.32446Z" fill="#555555" stroke="#555555" stroke-width="0.1"/>
<path d="M3.79102 6.52538L5.02808 7.90672L7.08987 5.60449" stroke="#555555"/>
</svg>
