<svg width="19" height="20" viewBox="0 0 19 20" fill="none" xmlns="http://www.w3.org/2000/svg">
<g clip-path="url(#clip0_502_10)">
<path d="M18.7161 12.671C19.269 8.00486 18.4504 5.05903 16.9738 3.72664L16.9747 3.72586C14.5914 1.45049 6.5429 1.11371 3.69171 3.82806C2.4113 5.15581 1.96029 7.10447 1.91087 9.51688C1.86144 11.93 1.80275 16.4506 6.00464 17.677H6.0085L6.00464 19.5497C6.00464 19.5497 5.97607 20.3084 6.4595 20.461C7.01244 20.6406 7.26266 20.2883 8.9825 18.229C11.8584 18.479 14.0671 17.9061 14.3181 17.8225C14.8988 17.6274 18.1848 17.1915 18.7161 12.671ZM9.26591 16.9113C9.26591 16.9113 7.44569 19.1866 6.87961 19.7774C6.69427 19.9694 6.49117 19.9515 6.49426 19.5706C6.49426 19.3206 6.50815 16.4615 6.50815 16.4615C2.9457 15.4379 3.15576 11.5886 3.19437 9.57495C3.23298 7.56047 3.60058 5.91065 4.68484 4.79968C7.18621 2.44843 14.2424 2.97412 16.0402 4.66806C18.2381 6.62137 17.4558 12.1398 17.4604 12.328C17.0086 16.1015 14.3459 16.3407 13.8562 16.504C13.6469 16.5737 11.7048 17.0746 9.26591 16.9113Z" fill="#8D8D8D"/>
<path d="M10.2733 5.24176C9.97596 5.24176 9.97596 5.70628 10.2733 5.71015C12.58 5.72796 14.4798 7.33985 14.5007 10.2965C14.5007 10.6085 14.9563 10.6046 14.9524 10.2926H14.9516C14.9269 7.10681 12.8526 5.25957 10.2733 5.24176Z" fill="#8D8D8D"/>
<path d="M13.3075 9.80637C13.3005 10.1145 13.7554 10.1292 13.7593 9.81722C13.7971 8.06055 12.7167 6.61358 10.6864 6.46106C10.3891 6.43938 10.3582 6.90777 10.6548 6.92945C12.4155 7.06339 13.343 8.26804 13.3075 9.80637Z" fill="#8D8D8D"/>
<path d="M12.8212 11.8045C12.4396 11.5832 12.0513 11.7209 11.8906 11.9385L11.5546 12.3744C11.384 12.5958 11.0651 12.5664 11.0651 12.5664C8.73744 11.9494 8.115 9.50754 8.115 9.50754C8.115 9.50754 8.08642 9.17696 8.29957 8.99966L8.71968 8.65127C8.92974 8.48404 9.06257 8.08146 8.84865 7.68584C8.27717 6.65074 7.89336 6.29383 7.69797 6.01977C7.49255 5.76196 7.18364 5.7039 6.86238 5.87809H6.85543C6.18742 6.26983 5.45608 7.003 5.69009 7.75784C6.08934 8.55373 6.82299 11.0907 9.16142 13.0077C10.2603 13.9143 11.9995 14.8433 12.7377 15.0578L12.7447 15.0686C13.4722 15.3117 14.1796 14.5499 14.5572 13.8601V13.8546C14.7248 13.521 14.6692 13.2051 14.4244 12.9985C13.9904 12.5742 13.3355 12.1058 12.8212 11.8045Z" fill="#8D8D8D"/>
<path d="M11.0043 8.18904C11.7464 8.2324 12.1063 8.62105 12.1448 9.41925C12.1587 9.73125 12.6105 9.70957 12.5967 9.39757C12.5472 8.3555 12.0051 7.77484 11.029 7.72065C10.7316 7.70284 10.7038 8.17124 11.0043 8.18904Z" fill="#8D8D8D"/>
</g>
<defs>
<clipPath id="clip0_502_10">
<rect width="19" height="20" fill="white"/>
</clipPath>
</defs>
</svg>
