<svg width="22" height="16" viewBox="0 0 22 16" fill="none" xmlns="http://www.w3.org/2000/svg">
<path d="M18.256 9.17485C17.9003 8.61485 18.0021 8.36572 18.256 7.86515C18.2606 7.85943 21.1967 2.80115 21.4993 1.08572L21.5011 1.08457C21.6514 0.459428 21.5011 0 20.7742 0H18.3688C17.7564 0 17.4741 0.394285 17.3228 0.835433C17.3228 0.835433 16.0981 4.49028 14.3655 6.85943C13.8064 7.544 13.5478 7.76343 13.2426 7.76343C13.0923 7.76343 12.8585 7.544 12.8585 6.91885V1.08457C12.8585 0.334857 12.687 0 12.1801 0H8.39786C8.01377 0 7.78551 0.349715 7.78551 0.675428C7.78551 1.38628 8.65179 1.54972 8.74163 3.54972V7.88915C8.74163 8.84 8.6032 9.01485 8.29611 9.01485C7.47841 9.01485 5.49376 5.34515 4.31764 1.14515C4.08022 0.330285 3.84829 0.00114328 3.23136 0.00114328H0.825028C0.138421 0.00114328 0 0.395428 0 0.836567C0 1.616 0.817694 5.49143 3.80246 10.6114C5.79169 14.1063 8.59312 16 11.1415 16C12.6734 16 12.8604 15.5795 12.8604 14.856C12.8604 11.5166 12.7219 11.2012 13.4892 11.2012C13.8449 11.2012 14.4572 11.4206 15.8872 13.1063C17.5217 15.1052 17.7903 16 18.7052 16H21.1106C21.7963 16 22.1438 15.5795 21.9439 14.7497C21.4864 13.0046 18.3953 9.41485 18.256 9.17485Z" fill="#8D8D8D"/>
</svg>
