<svg width="18" height="18" viewBox="0 0 18 18" fill="none" xmlns="http://www.w3.org/2000/svg">
<path fill-rule="evenodd" clip-rule="evenodd" d="M14.6324 2.4891C13.0222 0.884833 10.881 0.000940737 8.59975 0C3.89908 0 0.0734249 3.80725 0.0715342 8.48668C0.0709039 9.98252 0.463554 11.4428 1.20988 12.7299L0 17.1279L4.52094 15.9476C5.76664 16.6239 7.16907 16.9803 8.59628 16.9806H8.59985C13.3 16.9806 17.1261 13.1731 17.1279 8.49347C17.1288 6.22557 16.2425 4.09327 14.6324 2.4891ZM8.59975 15.5474H8.59681C7.32495 15.5468 6.07757 15.2066 4.98912 14.564L4.73039 14.4111L2.04759 15.1115L2.76367 12.5083L2.59508 12.2414C1.88552 11.1182 1.51083 9.82004 1.51146 8.4872C1.51293 4.59778 4.69279 1.43345 8.60259 1.43345C10.4959 1.43408 12.2756 2.16879 13.6139 3.5022C14.9521 4.83561 15.6887 6.60798 15.688 8.49295C15.6863 12.3827 12.5067 15.5474 8.59975 15.5474ZM12.4878 10.264C12.2748 10.1578 11.2271 9.64487 11.0317 9.57401C10.8366 9.50324 10.6943 9.468 10.5524 9.68021C10.4103 9.89242 10.0019 10.3702 9.87764 10.5116C9.75325 10.6532 9.62905 10.671 9.41593 10.5648C9.2028 10.4586 8.51624 10.2346 7.70227 9.51215C7.06886 8.94979 6.64122 8.25533 6.51685 8.04311C6.39269 7.83068 6.5158 7.72698 6.61034 7.61031C6.84101 7.32523 7.07201 7.02636 7.14302 6.88491C7.21413 6.74336 7.17852 6.61948 7.12516 6.51338C7.07201 6.40727 6.64585 5.36343 6.46833 4.93869C6.29522 4.52533 6.11969 4.58116 5.98881 4.57468C5.86465 4.56851 5.72252 4.56725 5.5804 4.56725C5.43838 4.56725 5.20749 4.62026 5.01212 4.83268C4.81685 5.045 4.26642 5.55798 4.26642 6.60181C4.26642 7.64565 5.02998 8.65404 5.13649 8.79559C5.243 8.93714 6.63913 11.0792 8.77664 11.9977C9.28504 12.2163 9.68192 12.3467 9.99142 12.4444C10.502 12.6059 10.9664 12.583 11.3336 12.5285C11.743 12.4676 12.5942 12.0155 12.7719 11.5201C12.9495 11.0247 12.9495 10.6002 12.8961 10.5116C12.843 10.4231 12.7008 10.3702 12.4878 10.264Z" fill="#8D8D8D"/>
</svg>
