<svg width="60" height="60" viewBox="0 0 60 60" fill="none" xmlns="http://www.w3.org/2000/svg">
<path d="M17.0929 56.0002C25.4284 56.0002 32.1857 49.2429 32.1857 40.9073C32.1857 32.5718 25.4284 25.8145 17.0929 25.8145C8.75731 25.8145 2 32.5718 2 40.9073C2 49.2429 8.75731 56.0002 17.0929 56.0002Z" stroke="#FF5710" stroke-width="2.3" stroke-miterlimit="10"/>
<path d="M17.0924 50.136C22.1895 50.136 26.3215 46.004 26.3215 40.9069C26.3215 35.8098 22.1895 31.6777 17.0924 31.6777C11.9953 31.6777 7.86328 35.8098 7.86328 40.9069C7.86328 46.004 11.9953 50.136 17.0924 50.136Z" stroke="#FF5710" stroke-width="2.3" stroke-miterlimit="10"/>
<path d="M17 37V41.3504H20.2628" stroke="#FF5710" stroke-width="2" stroke-miterlimit="10" stroke-linecap="round" stroke-linejoin="round"/>
<path d="M10.8047 26.7372V4H49.3899V23M32.619 42.5758H49.3899V23.2879" stroke="#FF5710" stroke-width="2.3" stroke-miterlimit="10" stroke-linecap="round" stroke-linejoin="round"/>
<path d="M35.9595 4H24.2227V19.9319L30.0957 14.9071L35.9595 19.9319V4Z" stroke="#FF5710" stroke-width="2.3" stroke-miterlimit="10" stroke-linejoin="round"/>
</svg>
