<svg width="36" height="59" viewBox="0 0 36 59" fill="none" xmlns="http://www.w3.org/2000/svg">
<path d="M14.8021 33.2058V9.34293C14.8021 8.49272 14.4643 7.67734 13.8631 7.07615C13.2619 6.47496 12.4466 6.13722 11.5964 6.13722C11.1751 6.13609 10.7577 6.21823 10.3682 6.37894C9.97879 6.53964 9.62495 6.77573 9.32705 7.07363C9.02914 7.37153 8.79305 7.72538 8.63235 8.11482C8.47165 8.50427 8.38951 8.92164 8.39064 9.34293V35.7715" stroke="#FF5710" stroke-width="2.3" stroke-miterlimit="10" stroke-linecap="round" stroke-linejoin="round"/>
<path d="M21.2169 33.2057V23.5885C21.2169 23.1668 21.1337 22.7493 20.972 22.3598C20.8104 21.9703 20.5735 21.6165 20.2749 21.3187C19.9763 21.0209 19.6219 20.785 19.232 20.6244C18.8421 20.4638 18.4243 20.3817 18.0026 20.3828V20.3828C17.5813 20.3817 17.1639 20.4638 16.7745 20.6245C16.385 20.7852 16.0312 21.0213 15.7333 21.3192C15.4354 21.6171 15.1993 21.971 15.0386 22.3604C14.8779 22.7499 14.7958 23.1672 14.7969 23.5885" stroke="#FF5710" stroke-width="2.3" stroke-miterlimit="10" stroke-linecap="round" stroke-linejoin="round"/>
<path d="M27.6263 33.2059V25.7145C27.624 24.865 27.2855 24.0509 26.6848 23.4502C26.0841 22.8495 25.2701 22.5111 24.4206 22.5088V22.5088C23.5704 22.5088 22.755 22.8465 22.1538 23.4477C21.5526 24.0489 21.2148 24.8643 21.2148 25.7145" stroke="#FF5710" stroke-width="2.3" stroke-miterlimit="10" stroke-linecap="round" stroke-linejoin="round"/>
<path d="M27.625 27.8659C27.625 27.0157 27.9627 26.2003 28.5639 25.5991C29.1651 24.9979 29.9805 24.6602 30.8307 24.6602C31.6809 24.6602 32.4963 24.9979 33.0975 25.5991C33.6987 26.2003 34.0364 27.0157 34.0364 27.8659V38.9059" stroke="#FF5710" stroke-width="2.3" stroke-miterlimit="10"/>
<path d="M20.5725 11.1429C20.5725 5.95721 16.7297 1.71436 11.9964 1.71436C7.26317 1.71436 3.42969 5.92893 3.42969 11.1429" stroke="#FF5710" stroke-width="2.3" stroke-miterlimit="10" stroke-linecap="round"/>
<path d="M8.39208 26.7944C6.77975 27.0536 5.28474 27.7981 4.10637 28.9287C2.06637 31.1059 2.04065 33.8573 1.97208 35.3401C1.8178 38.3916 2.87208 40.6287 4.10637 43.183C5.57266 46.1828 7.5136 48.9241 9.85262 51.3017C10.234 51.6893 10.4578 52.2075 10.4578 52.7513V55.4287C10.4578 56.5333 11.3532 57.4287 12.4578 57.4287H28.4721C29.5767 57.4287 30.4721 56.5333 30.4721 55.4287V52.1227C30.4721 51.753 30.5763 51.3915 30.7624 51.0721C32.9123 47.382 34.0444 43.1833 34.0378 38.9059" stroke="#FF5710" stroke-width="2.3" stroke-miterlimit="10" stroke-linejoin="round"/>
</svg>
