<svg width="839" height="1156" viewBox="0 0 839 1156" fill="none" xmlns="http://www.w3.org/2000/svg">
<path d="M517.26 0C517.26 0 275.535 189.276 224.555 399.312C173.577 609.347 262.894 680.58 290.173 723.727C317.56 766.874 412.353 839.938 460.278 874.333C508.201 908.73 630.382 997.16 623.535 1108.59C892.225 955.641 872.212 697.982 764.885 590.623C764.885 590.623 809.016 739.398 753.93 795.164C776.26 692.996 720.225 564.47 657.239 480.823C594.255 397.174 469.441 223.672 517.26 0Z" fill="#181818"/>
<path d="M206.197 367.561C206.197 367.561 -4.45709 526.918 0.0719992 774.3C4.60109 1021.68 294.672 1246.27 599.279 1117.64C619.292 1024.33 496.269 925.722 461.617 900.179C422.856 871.787 92.1281 678.44 206.197 367.561Z" fill="#181818"/>
</svg>
