<svg width="722" height="994" viewBox="0 0 722 994" fill="none" xmlns="http://www.w3.org/2000/svg">
<mask id="mask0_45_1381" style="mask-type:alpha" maskUnits="userSpaceOnUse" x="0" y="0" width="722" height="994">
<rect width="722" height="994" fill="#C4C4C4"/>
</mask>
<g mask="url(#mask0_45_1381)">
<path d="M216.482 -77.2373C216.482 -77.2373 -23.9453 114.769 -74.6499 327.834C-125.355 540.899 -36.5167 613.159 -9.38348 656.929C17.8545 700.698 112.14 774.816 159.806 809.708C207.473 844.599 328.996 934.305 322.187 1047.34C589.434 892.188 569.529 630.812 462.777 521.905C462.777 521.905 506.672 672.826 451.882 729.395C474.091 625.753 418.358 495.375 355.711 410.521C293.063 325.666 168.921 149.66 216.482 -77.2373Z" fill="#181818"/>
<path d="M-92.9099 295.624C-92.9099 295.624 -302.433 457.281 -297.928 708.231C-293.424 959.181 -4.91016 1187.01 298.06 1056.53C317.965 961.865 195.604 861.836 161.137 835.925C122.585 807.125 -206.367 610.989 -92.9099 295.624Z" fill="#181818"/>
</g>
</svg>
