<svg width="214" height="457" viewBox="0 0 214 457" fill="none" xmlns="http://www.w3.org/2000/svg">
<mask id="mask0_158_2607" style="mask-type:alpha" maskUnits="userSpaceOnUse" x="0" y="0" width="214" height="457">
<rect width="214" height="457" fill="#C4C4C4"/>
</mask>
<g mask="url(#mask0_158_2607)">
<path d="M250.267 -37.3403C250.267 -37.3403 139.318 51.2642 115.919 149.587C92.5206 247.909 133.516 281.255 146.037 301.453C158.607 321.651 202.116 355.854 224.113 371.955C246.109 388.057 302.189 429.453 299.046 481.616C422.372 410.017 413.186 289.401 363.924 239.144C363.924 239.144 384.18 308.789 358.896 334.894C369.145 287.067 343.426 226.901 314.516 187.744C285.607 148.586 228.319 67.3655 250.267 -37.3403Z" fill="#181818"/>
<path d="M107.493 134.723C107.493 134.723 10.8053 209.322 12.8841 325.127C14.9629 440.932 148.102 546.067 287.913 485.854C297.099 442.171 240.633 396.011 224.728 384.054C206.937 370.763 55.1368 280.253 107.493 134.723Z" fill="#181818"/>
</g>
</svg>
