<svg width="54" height="46" viewBox="0 0 54 46" fill="none" xmlns="http://www.w3.org/2000/svg">
<path fill-rule="evenodd" clip-rule="evenodd" d="M9.04258 15.798V38.9986C9.04258 41.1974 10.8152 42.9798 13.0018 42.9798H39.9653C42.1519 42.9798 43.9244 41.1974 43.9244 38.9986V15.798H46.928V38.9986C46.928 42.8654 43.8107 46 39.9653 46H13.0018C9.15637 46 6.03906 42.8654 6.03906 38.9986V15.798H9.04258Z" fill="white"/>
<path fill-rule="evenodd" clip-rule="evenodd" d="M48.318 13.2181L26.9185 4.27711C26.5063 4.10491 26.0331 4.2996 25.8614 4.71197C25.6897 5.12434 25.8846 5.59823 26.2968 5.77043L47.6963 14.7114C48.1085 14.8836 48.5818 14.6889 48.7534 14.2766C48.9251 13.8642 48.7302 13.3903 48.318 13.2181ZM28.083 1.47989C26.1268 0.66257 23.8805 1.58665 23.0656 3.54388C22.2508 5.50111 23.1761 7.75033 25.1323 8.56765L46.5318 17.5087C48.488 18.326 50.7343 17.4019 51.5492 15.4447C52.364 13.4874 51.4387 11.2382 49.4825 10.4209L28.083 1.47989Z" fill="white"/>
<path fill-rule="evenodd" clip-rule="evenodd" d="M4.70737 13.2181L26.1069 4.27711C26.5191 4.10491 26.9923 4.2996 27.164 4.71197C27.3357 5.12434 27.1407 5.59823 26.7286 5.77043L5.32906 14.7114C4.91691 14.8836 4.44362 14.6889 4.27195 14.2766C4.10027 13.8642 4.29522 13.3903 4.70737 13.2181ZM24.9424 1.47989C26.8986 0.66257 29.1449 1.58665 29.9597 3.54388C30.7746 5.50111 29.8493 7.75033 27.8931 8.56765L6.49358 17.5087C4.53739 18.326 2.29104 17.4019 1.47622 15.4447C0.661397 13.4874 1.58665 11.2382 3.54284 10.4209L24.9424 1.47989Z" fill="white"/>
<path fill-rule="evenodd" clip-rule="evenodd" d="M18.3572 35.0971V42.9639H34.1414V35.0971H18.3572ZM16.9812 32.0608C16.0693 32.0608 15.3301 32.8023 15.3301 33.717V46.0002H37.1685V33.717C37.1685 32.8023 36.4292 32.0608 35.5173 32.0608H16.9812Z" fill="white"/>
<path fill-rule="evenodd" clip-rule="evenodd" d="M23.2078 25.5686V32.1988H29.212V25.5686H23.2078ZM21.898 22.4651C21.0299 22.4651 20.3262 23.223 20.3262 24.1579V34.2325H32.0936V24.1579C32.0936 23.223 31.3899 22.4651 30.5218 22.4651H21.898Z" fill="white"/>
<path fill-rule="evenodd" clip-rule="evenodd" d="M28.3385 34.3838V44.0117H25.0859V34.3838H28.3385Z" fill="white"/>
</svg>
