<svg width="52" height="52" viewBox="0 0 52 52" fill="none" xmlns="http://www.w3.org/2000/svg">
<path fill-rule="evenodd" clip-rule="evenodd" d="M7.27347 10.935C10.7257 4.79114 16.7324 0.846779 23.8346 0.0600204C24.9594 -0.0644989 28.0449 0.0156 29.2363 0.200295C33.7359 0.897908 37.832 2.96015 41.0682 6.1573C45.6099 10.6444 47.8775 16.8533 47.2358 23.0452C46.4062 31.0492 41.0982 37.8956 33.532 40.721L32.6317 41.0572V45.004V48.9509L33.5834 48.9511C34.2841 48.9512 34.6296 48.998 34.8932 49.1289C35.9946 49.6756 35.9946 51.2755 34.8932 51.8222C34.5609 51.9872 33.9205 52 25.9953 52C18.0702 52 17.4298 51.9872 17.0974 51.8222C15.996 51.2755 15.996 49.6756 17.0974 49.1289C17.361 48.998 17.7065 48.9512 18.4072 48.9511L19.3589 48.9509V45.004V41.0572L18.4587 40.7224C15.5854 39.6539 12.8885 37.8904 10.6579 35.6213C4.1697 29.0213 2.78523 18.9229 7.27347 10.935ZM28.799 41.9055C28.3887 41.9508 27.1271 41.9879 25.9953 41.9879C24.8635 41.9879 23.6019 41.9508 23.1916 41.9055L22.4456 41.8232V45.387V48.9509H25.9953H29.545V45.387V41.8232L28.799 41.9055ZM25.2917 11.8492C25.1648 13.6147 25.4903 15.4361 26.1713 16.7701C27.0169 18.4268 28.7934 19.4293 30.4197 19.1679C31.0289 19.0699 31.9274 18.6703 32.29 18.3361L32.5142 18.1294L32.671 18.651C33.0541 19.9258 32.9711 21.2441 32.4222 22.5984C32.0606 23.4904 32.0439 23.8331 32.3329 24.4229C32.6043 24.9769 33.2353 25.3684 33.8566 25.3684C34.2601 25.3684 34.2867 25.3851 34.2216 25.5971C34.0589 26.1271 33.3129 27.6047 33.2081 27.6047C32.4792 28.9871 31.3772 29.8192 30.9173 30.0624C30.6244 30.3822 28.8975 31.1521 28.0017 31.3623C26.9254 31.6149 25.0746 31.6391 24.1051 31.4134C22.519 31.044 21.2282 30.354 20.0597 29.2511C19.1822 28.4229 18.5061 27.4979 18.0778 26.5395C17.7648 25.8394 17.4041 24.5481 17.4041 24.128V23.8409L17.8218 24.114C18.708 24.6933 19.8126 24.5011 20.3896 23.6668C20.6197 23.3343 20.6462 23.1906 20.6559 22.2238C20.6618 21.6333 20.6735 20.8072 20.6816 20.3881L20.6965 19.626C20.687 18.9865 20.8141 17.3757 21.3984 16.0489L21.7752 15.1498C22.4422 13.5578 23.4204 12.2707 24.6433 11.3756C24.975 11.133 25.2713 10.9344 25.3018 10.9344C25.3324 10.9344 25.3278 11.346 25.2917 11.8492ZM42.4466 13.2723C39.8707 7.96044 34.8624 4.24549 28.9277 3.24436C28.0714 3.09981 25.0626 2.97956 24.452 3.06536C24.2822 3.08924 23.7729 3.15735 23.3202 3.21681C22.209 3.36258 20.6287 3.76338 19.5653 4.16905C17.5752 4.92847 15.3284 6.26067 14.0087 7.46399L13.3399 8.07388C12.6814 8.56179 11.6937 9.7815 11.2821 10.3304L10.6997 11.2168C6.71838 17.2757 6.75984 24.9984 10.8056 30.9759C13.5149 34.9787 17.6333 37.7013 22.4971 38.7049C23.4961 38.9111 23.9123 38.9381 26.0468 38.9348C28.1647 38.9316 28.5987 38.9025 29.545 38.7006C32.1311 38.1488 34.7372 37.0234 36.6958 35.6127C37.2372 35.4322 38.5413 34.1631 39.1256 33.5511L39.6598 32.9543C44.5242 27.5202 45.6161 19.8083 42.4466 13.2723ZM35.5126 29.9133C35.5126 29.8681 35.7405 29.4559 36.0191 28.9974C37.0355 27.3242 37.6697 25.1482 37.6689 23.3355C37.6685 22.3463 37.1229 21.5768 36.3047 21.4115L35.9887 21.3476L35.9693 20.1815C35.9412 18.4987 35.5273 17.0171 34.6923 15.6102C33.955 14.3679 33.5682 14.062 32.7346 14.062C31.9808 14.062 31.5093 14.3774 30.9964 15.2247C30.4475 16.1313 29.754 16.3609 29.2317 15.8086C28.3213 14.8458 28.1183 12.4801 28.7092 9.72088C28.9977 8.37394 28.7885 7.75063 27.8967 7.30043C27.3148 7.00667 26.9772 7.01246 25.9828 7.33296C24.2736 7.88379 22.8297 8.74699 21.592 9.95803C20.7881 10.7446 19.7799 12.1427 19.3119 13.1199L19.0298 13.7091C18.3961 14.9061 18.0588 16.4828 17.9694 17.1215C17.9398 17.198 17.839 17.8431 17.7451 18.5551L17.5746 19.8497L17.2218 19.6131C16.4859 19.1197 15.5681 19.2121 14.9689 19.8398C14.0834 20.7673 14.0207 24.2244 14.8445 26.7038C16.1587 30.6595 19.6598 33.6868 23.8233 34.4675C24.7826 34.6474 26.8417 34.6759 27.806 34.5226C29.4922 34.2545 31.4324 33.4739 32.6947 32.5556L33.3238 32.0981C33.7276 31.8344 34.7306 31.0284 35.5126 29.9133Z" fill="white"/>
</svg>
