<svg width="46" height="46" viewBox="0 0 46 46" fill="none" xmlns="http://www.w3.org/2000/svg">
<path fill-rule="evenodd" clip-rule="evenodd" d="M24.9395 1.4404C20.8828 2.02979 18.3877 2.4292 18.2245 2.5155C18.0816 2.59108 14.2139 6.41563 9.6296 11.0146C1.94835 18.7203 1.273 19.4211 1.02071 19.9481C0.303767 21.4459 0.316412 22.9767 1.05751 24.4164C1.35882 25.0017 1.90265 25.5701 8.40929 32.0999C12.2738 35.9781 15.6359 39.3064 15.8806 39.4962L16.3257 39.8413L16.3771 40.6042C16.5137 42.6317 17.7496 44.2611 19.6488 44.9177L20.2322 45.1194H30.7408H41.2495L41.8329 44.9177C43.2596 44.4244 44.3257 43.3664 44.89 41.8836L45.0867 41.367L45.1103 29.3018C45.1317 18.297 45.1214 17.2124 44.9919 16.9618C44.9137 16.8107 43.861 15.368 42.6525 13.7557C41.444 12.1434 40.4241 10.7729 40.3862 10.7102C40.3483 10.6474 40.3646 10.2621 40.4225 9.85395C40.5793 8.74839 40.5332 8.66523 38.8098 6.94315L37.371 5.50537L38.8049 4.06149C40.5557 2.29848 40.7124 2.00789 40.3338 1.22521C40.0274 0.591926 39.2698 0.317914 38.6452 0.61444C38.4935 0.686521 37.7233 1.39293 36.9336 2.18416L35.4978 3.62281L34.0132 2.14637C33.1967 1.33429 32.4181 0.627966 32.2831 0.576655C32.1481 0.52543 31.893 0.487732 31.7163 0.493055C31.5395 0.498291 28.49 0.924667 24.9395 1.4404ZM32.4646 4.34632L33.6191 5.50389L32.7037 6.41677L31.7883 7.32964L31.2428 6.79619C30.5889 6.15672 30.4305 6.06832 29.9399 6.06875C28.9797 6.06954 28.3579 7.07335 28.7887 7.92715C28.9746 8.29549 32.4186 11.7774 32.9163 12.1001C33.9533 12.7725 35.1178 11.9575 34.886 10.7215C34.8423 10.488 34.6682 10.237 34.2482 9.80159L33.6704 9.20278L34.5829 8.28973L35.4954 7.37668L36.6456 8.53329L37.7958 9.6899L36.95 15.602L36.1042 21.5141L28.1246 29.5047C23.4341 34.2016 20.0012 37.5728 19.7961 37.6833C19.3372 37.9306 18.3689 37.946 17.9211 37.7131C17.4963 37.492 3.56816 23.5674 3.33305 23.1287C3.08197 22.66 3.06828 21.7069 3.30558 21.2089C3.41764 20.9736 6.06739 18.2576 11.4354 12.8761L19.399 4.89242L25.2225 4.0498C28.4254 3.58633 31.1054 3.20298 31.1781 3.19792C31.2507 3.19285 31.8296 3.70964 32.4646 4.34632ZM22.6697 10.4672C22.5234 10.5309 22.3012 10.705 22.176 10.8539C22.0056 11.0565 21.1526 13.514 18.7942 20.5963C15.4142 30.7466 15.5444 30.2785 15.9262 30.9078C16.3662 31.6334 17.5764 31.6338 18.0513 30.9085C18.253 30.6005 24.4618 11.9208 24.4618 11.622C24.4618 11.2171 24.124 10.7143 23.7205 10.5189C23.3044 10.3173 23.0429 10.3044 22.6697 10.4672ZM42.514 29.3076C42.514 42.0888 42.5603 41.1944 41.8622 41.8929C41.1685 42.5871 41.8837 42.5451 30.7408 42.5451C19.598 42.5451 20.3131 42.5871 19.6194 41.8929C19.3169 41.5903 18.9677 40.9079 18.9677 40.6196C18.9677 40.5857 19.154 40.531 19.3819 40.4983C20.0155 40.4074 20.5739 40.2254 21.1714 39.9154C21.6415 39.6715 22.8402 38.5097 30.0656 31.2951C36.7692 24.6015 38.4411 22.8877 38.5416 22.6064C38.6105 22.4137 38.9074 20.5282 39.2013 18.4164C39.4952 16.3046 39.7532 14.5224 39.7748 14.456C39.7971 14.3873 40.3954 15.1101 41.164 16.1345L42.514 17.9337V29.3076ZM11.9132 17.0709C10.5134 17.346 9.25269 18.5276 8.89871 19.8964C8.52894 21.3263 8.93438 22.7397 10.005 23.753C11.0165 24.7102 12.3399 25.048 13.695 24.6949C15.5966 24.1994 16.8747 22.2125 16.5308 20.2865C16.139 18.0924 14.0649 16.648 11.9132 17.0709ZM26.5948 17.0982C25.46 17.3741 24.4896 18.1571 23.9642 19.221C23.676 19.8045 23.6366 19.9654 23.605 20.6898C23.5765 21.3411 23.606 21.624 23.7533 22.1091C24.5949 24.8818 28.1582 25.7476 30.2292 23.6826C31.7436 22.1724 31.7574 19.7754 30.2607 18.2052C29.3066 17.2043 27.9026 16.7803 26.5948 17.0982ZM13.3734 19.8335C13.9754 20.2832 14.1327 20.8923 13.805 21.5051C13.3479 22.3601 12.1827 22.4496 11.6143 21.6735C11.3661 21.3346 11.329 20.672 11.5369 20.2948C11.8875 19.6589 12.8246 19.4234 13.3734 19.8335ZM28.2257 19.8662C28.5659 20.1086 28.7496 20.4955 28.7496 20.9698C28.7496 21.9085 27.6405 22.5283 26.8375 22.0383C26.0534 21.56 25.9822 20.3873 26.7061 19.8734C26.8388 19.7791 27.0257 19.6808 27.1217 19.6547C27.4172 19.5743 27.9628 19.6788 28.2257 19.8662Z" fill="white"/>
</svg>
