<svg width="37" height="45" viewBox="0 0 37 45" fill="none" xmlns="http://www.w3.org/2000/svg">
<path fill-rule="evenodd" clip-rule="evenodd" d="M17.9986 0.0796375C17.7142 0.19452 0.675335 10.3652 0.484536 10.5341C0.0524961 10.9163 0.0346882 11.0412 0.0050376 13.8868C-0.0262798 16.9037 0.0905682 19.9458 0.295754 21.454C1.22299 28.2702 4.13104 34.2584 8.75461 38.8721C11.3893 41.5011 14.3511 43.4771 17.603 44.7754C18.4662 45.12 18.69 45.0955 20.0365 44.5096C23.0861 43.1824 25.8376 41.2877 28.2819 38.8315C31.7588 35.3378 34.2972 31.0224 35.6948 26.2298C36.719 22.7176 37.0549 19.5016 36.9929 13.801C36.963 11.0489 36.9438 10.9183 36.513 10.5322C36.3027 10.3436 19.4221 0.270169 19.0499 0.111129C18.7332 -0.0241611 18.2887 -0.0374438 17.9986 0.0796375ZM26.2654 7.86339L33.9464 12.4376L33.9117 16.352C33.874 20.591 33.8237 21.1677 33.2783 23.6118C31.7676 30.3821 27.8172 36.2372 22.3148 39.8612C21.2106 40.5884 18.7818 41.8618 18.4988 41.8618C18.4079 41.8618 17.7463 41.5671 17.0285 41.2069C11.2276 38.2958 6.71591 32.9761 4.49079 26.424C3.85971 24.5657 3.36512 22.2176 3.15011 20.0592C3.10019 19.5581 3.06011 17.6383 3.06098 15.7929L3.06256 12.4376L4.88125 11.3607C5.88156 10.7684 9.34481 8.70266 12.5774 6.76998C15.8101 4.8374 18.484 3.26362 18.5197 3.27268C18.5553 3.28182 22.0408 5.34759 26.2654 7.86339ZM24.157 16.7523C24.0122 16.8267 21.9893 18.7955 19.6616 21.1273L15.4292 25.3669L14.1788 24.1185C13.4911 23.4319 12.8172 22.8285 12.6814 22.7778C12.0793 22.5527 11.3196 22.7872 10.946 23.3132C10.6832 23.6833 10.6204 24.4002 10.8147 24.8108C10.8934 24.9771 11.796 25.949 12.8203 26.9704C14.4035 28.5491 14.7387 28.8425 15.0556 28.9267C15.8912 29.1487 15.6771 29.3267 21.1145 23.8883C23.8318 21.1705 26.1115 18.8401 26.1806 18.7095C26.5055 18.095 26.2509 17.2481 25.6113 16.8159C25.2563 16.576 24.559 16.5456 24.157 16.7523Z" fill="white"/>
</svg>
