<svg width="52" height="38" viewBox="0 0 52 38" fill="none" xmlns="http://www.w3.org/2000/svg">
<path fill-rule="evenodd" clip-rule="evenodd" d="M5.83743 0.977178C5.19773 1.38706 5.16374 1.54748 5.12874 4.31997L5.09706 8.3709L4.3218 8.3713C3.73132 8.3716 3.46957 8.41855 3.22406 8.56837C2.30183 9.1312 2.25906 10.3783 3.13893 11.05C3.45404 11.2906 3.62884 11.3397 4.30959 11.3792L5.10987 11.4256V12.9269V14.4283H3.25876C1.50215 14.4283 1.39009 14.44 1.0649 14.6575C0.143776 15.2733 0.167177 16.4904 1.11372 17.1984C1.36679 17.3877 1.56025 17.4096 3.24837 17.4398L5.10463 17.473L5.13247 24.6077L5.16031 31.7425L5.38151 32.0958C5.77126 32.7183 5.87616 32.747 7.97027 32.8025L9.87232 32.853L10.1156 33.4587C10.7998 35.1619 12.4944 36.6206 14.3352 37.091C15.1053 37.2878 16.5971 37.2881 17.3693 37.0917C19.1399 36.6412 20.6632 35.4059 21.4447 33.7869L21.8711 32.9035H29.058H36.2449L36.6795 33.7869C37.4742 35.402 39.0113 36.6462 40.7624 37.0917C41.5326 37.2876 43.0244 37.2879 43.7965 37.0923C45.664 36.6192 47.4792 35.0101 48.084 33.2916L48.2139 32.9225L49.5335 32.8877C50.9792 32.8497 51.3235 32.7373 51.7504 32.1642C51.9593 31.8838 51.9632 31.7899 51.9933 26.3087C52.0146 22.4073 51.9899 20.6218 51.9108 20.3502C51.82 20.0387 50.892 19.0278 47.2109 15.2301C43.4327 11.3322 42.5583 10.4799 42.2501 10.3942C42.0349 10.3344 40.6864 10.29 39.0769 10.2897L36.2778 10.2891L36.2776 5.32954C36.2775 1.5277 36.2645 1.44673 35.5821 0.990403L35.2393 0.76123L20.7042 0.762947L6.16898 0.764663L5.83743 0.977178ZM33.227 17.5832L33.2014 29.8243H27.6093H22.0171L21.8505 29.2626C21.2541 27.2517 19.4568 25.5047 17.4516 24.9869C16.5382 24.7511 14.9852 24.7748 14.1229 25.0377C12.1123 25.6508 10.4479 27.2895 9.90187 29.1933L9.73544 29.7738H8.93567H8.13589V23.6197V17.4654L12.2967 17.436C16.9388 17.4031 16.8747 17.4126 17.317 16.6962C17.4982 16.4028 17.5318 16.2291 17.4945 15.7779C17.455 15.302 17.3947 15.1678 17.0774 14.8501L16.7065 14.4788L12.4464 14.4283L8.18632 14.3778L8.15838 12.8926L8.13054 11.4072L12.8487 11.3782C18.1123 11.3458 17.9791 11.3635 18.4266 10.6388C18.8243 9.99479 18.6025 8.9829 17.9704 8.55726C17.8112 8.45005 16.7592 8.41078 12.9775 8.3709L8.18632 8.32042L8.15838 5.27906L8.13054 3.78994H20.6915H33.2526L33.227 17.5832ZM43.1219 15.3622C44.2094 16.4865 45.5057 17.8267 46.0027 18.3404L46.906 19.2743H41.5919H36.2778V16.296V13.3178H38.7112H41.1446L43.1219 15.3622ZM48.9871 26.0955V29.8882L48.7152 29.8562C48.4737 29.8278 48.4118 29.7339 48.161 29.0166C47.4618 27.0164 45.8154 25.4935 43.7965 24.9799C43.0345 24.786 41.4393 24.7845 40.716 24.9768C39.0125 25.43 37.4773 26.6791 36.698 28.2459L36.2778 29.0905V25.6968V22.303H42.6325H48.9871V26.0955ZM17.3974 28.2085C19.3036 29.2479 19.6432 31.8234 18.0753 33.3486C17.2447 34.1566 15.8916 34.4396 14.7354 34.0472C14.0262 33.8064 13.0715 32.8366 12.8319 32.1134C12.5893 31.3817 12.6468 30.2973 12.9625 29.6497C13.2783 29.0018 14.009 28.3052 14.6318 28.0582C15.4184 27.7464 16.6752 27.8146 17.3974 28.2085ZM43.6608 28.1406C45.0945 28.8443 45.7724 30.4528 45.3084 32.0503C45.086 32.8159 44.153 33.7903 43.3963 34.0472C41.8156 34.5837 40.1128 33.9041 39.3983 32.4513C38.5426 30.7117 39.3631 28.6722 41.1904 27.9964C41.7818 27.7776 43.0751 27.8531 43.6608 28.1406Z" fill="white"/>
</svg>
