<svg width="42" height="42" viewBox="0 0 42 42" fill="none" xmlns="http://www.w3.org/2000/svg">
<path fill-rule="evenodd" clip-rule="evenodd" d="M0.636763 0.165593C0.303326 0.341679 0 0.829324 0 1.18921C0 1.59792 2.03516 9.41467 2.32963 10.1371C2.97246 11.714 3.13811 11.9123 7.36367 16.1651C9.49582 18.3111 11.2404 20.1017 11.2404 20.1445C11.2404 20.1871 8.84248 22.6223 5.9117 25.5558C0.149818 31.3231 0.24056 31.2188 0.056448 32.2937C-0.00927125 32.6772 -0.00845078 32.9628 0.0592376 33.3583C0.249667 34.4701 0.298075 34.5304 3.88744 38.12C7.47673 41.7097 7.53704 41.7581 8.64877 41.9486C9.04423 42.0163 9.32984 42.0171 9.71332 41.9514C10.7881 41.7672 10.6838 41.858 16.4506 36.0956C19.3838 33.1646 21.8208 30.7665 21.8659 30.7665C21.911 30.7665 24.1262 32.9477 26.7884 35.6137C29.4507 38.2797 31.8561 40.6251 32.1338 40.8257C33.2471 41.6299 34.3012 41.9579 35.7723 41.9579C36.9633 41.9579 37.523 41.8343 38.5208 41.3507C40.1105 40.5804 41.3393 39.0801 41.8134 37.3308C42.0131 36.5936 42.0126 34.945 41.8125 34.2175C41.6082 33.4756 41.2523 32.7235 40.8258 32.133C40.6252 31.8552 38.28 29.4496 35.6143 26.7871C32.9485 24.1247 30.7674 21.9093 30.7674 21.8642C30.7674 21.819 33.1653 19.3819 36.0961 16.4484C41.858 10.6811 41.7672 10.7855 41.9514 9.71055C42.0171 9.32703 42.0163 9.0414 41.9486 8.64591C41.7581 7.53408 41.7097 7.47377 38.1204 3.88418C34.5311 0.294499 34.4708 0.246087 33.359 0.0556408C32.9636 -0.0120533 32.678 -0.0128738 32.2945 0.052851C31.2197 0.236979 31.324 0.146228 25.5572 5.9086C22.624 8.83963 20.1884 11.2377 20.145 11.2377C20.1015 11.2377 18.3478 9.52478 16.248 7.43119C13.1131 4.30569 12.3053 3.54415 11.7326 3.17474C10.8859 2.62835 10.5528 2.4585 9.79561 2.18682C9.02479 1.9103 1.47831 -0.0046685 1.17761 8.55288e-06C1.04888 0.00205989 0.80545 0.0765645 0.636763 0.165593ZM36.3609 5.63134C39.6582 8.92801 39.6906 8.96846 39.4699 9.5014C39.4174 9.62801 39.099 10.0053 38.7624 10.3397L38.1502 10.9478L36.2023 9.00908C35.131 7.94279 34.1738 7.02953 34.0752 6.97965C33.9766 6.92976 33.7182 6.88914 33.5009 6.88947C33.0557 6.89004 32.7235 7.06761 32.482 7.43381C32.2853 7.73232 32.2736 8.41386 32.4605 8.69629C32.5344 8.80788 33.4477 9.75757 34.4902 10.8066L36.3857 12.714L35.4456 13.6568L34.5055 14.5996L33.3954 13.5003C32.4724 12.5862 32.2321 12.391 31.9697 12.342C31.0726 12.1748 30.3242 12.9485 30.5244 13.8363C30.5777 14.0724 30.8281 14.3737 31.6841 15.2316L32.776 16.3258L31.8136 17.2882L30.8512 18.2507L28.8197 16.2274C26.5585 13.9755 26.5246 13.953 25.8012 14.2292C25.2179 14.452 24.9404 14.9835 25.0618 15.6452C25.1108 15.9126 25.3971 16.2354 27.1223 17.9678L29.1257 19.9799L28.184 20.9191L27.2421 21.8582L26.1927 20.8198C25.6156 20.2486 25.0403 19.7422 24.9143 19.6943C23.8837 19.3024 22.9144 20.2717 23.3062 21.3025C23.3541 21.4285 23.8608 22.004 24.4321 22.5815L25.4709 23.6314L24.5503 24.5521L23.6296 25.473L21.6809 23.5334C20.6091 22.4666 19.6515 21.553 19.553 21.5031C19.4544 21.4532 19.1959 21.4126 18.9787 21.4129C18.5335 21.4135 18.2013 21.5911 17.9598 21.9573C17.7631 22.2558 17.7514 22.9373 17.9383 23.2198C18.0122 23.3314 18.9255 24.281 19.968 25.3301L21.8634 27.2375L20.9233 28.1803L19.9832 29.1231L18.8732 28.0238C17.9501 27.1097 17.7099 26.9145 17.4475 26.8655C16.5503 26.6983 15.802 27.4719 16.0022 28.3598C16.0554 28.5958 16.3058 28.8971 17.1619 29.7551L18.2538 30.8493L17.2914 31.8117L16.329 32.7742L14.2975 30.7509C12.0363 28.499 12.0023 28.4764 11.2789 28.7527C10.6957 28.9755 10.4182 29.507 10.5395 30.1687C10.5886 30.4361 10.8749 30.7588 12.6 32.4913L14.6035 34.5034L13.6617 35.4425L12.7199 36.3817L11.6705 35.3433C11.0933 34.7721 10.518 34.2656 10.3921 34.2177C9.36142 33.8258 8.39213 34.7952 8.78398 35.826C8.83189 35.9519 9.33812 36.5271 9.90908 37.1041L10.9471 38.1533L10.3407 38.7637C10.0073 39.0995 9.63078 39.4171 9.50418 39.4696C8.97105 39.6904 8.9306 39.6579 5.64488 36.3667C3.58994 34.3083 2.53425 33.1934 2.49807 33.0435C2.46812 32.9194 2.46812 32.7162 2.49807 32.5922C2.53556 32.437 7.17103 27.7437 17.3369 17.5682C25.4683 9.42902 32.232 2.69768 32.3673 2.60956C32.5442 2.49452 32.7041 2.46047 32.9354 2.48886C33.2326 2.52521 33.4949 2.76595 36.3609 5.63134ZM5.81685 3.65303C8.87366 4.43385 9.46521 4.63521 10.2988 5.1789C10.9136 5.57989 12.307 6.84237 12.307 6.99835C12.307 7.12324 7.12648 12.3044 7.0016 12.3044C6.84662 12.3044 5.59377 10.9199 5.18444 10.2961C4.97784 9.98125 4.70857 9.46431 4.58607 9.14734C4.41008 8.69177 2.95367 3.20871 2.95367 3.00161C2.95367 2.92087 2.92209 2.91373 5.81685 3.65303ZM16.2865 10.9098L18.4187 13.0433L15.7321 15.7302L13.0454 18.4171L10.892 16.2635L8.73861 14.1099L11.4043 11.443C12.8705 9.97624 14.0889 8.77613 14.1121 8.77613C14.1353 8.77613 15.1137 9.73623 16.2865 10.9098ZM31.5669 26.1915C32.9774 27.6015 34.1313 28.7921 34.1313 28.8372C34.1313 28.9451 28.9472 34.1307 28.8393 34.1307C28.7936 34.1307 27.5937 32.9676 26.1728 31.546L23.5894 28.9613L26.2549 26.2946C27.721 24.8278 28.9389 23.6278 28.9614 23.6278C28.984 23.6278 30.1564 24.7815 31.5669 26.1915ZM37.4227 32.06C39.0178 33.6901 39.3035 34.123 39.4801 35.1768C39.7991 37.0804 38.5419 38.9779 36.6692 39.4193C35.9952 39.5783 35.5744 39.5778 34.8694 39.4175C34.0398 39.2287 33.4546 38.8055 31.9161 37.2814L30.5623 35.9404L33.2283 33.2714C34.6947 31.8034 35.9173 30.6024 35.9455 30.6024C35.9735 30.6024 36.6383 31.2583 37.4227 32.06Z" fill="white"/>
</svg>
