<svg width="44" height="44" viewBox="0 0 44 44" fill="none" xmlns="http://www.w3.org/2000/svg">
<path fill-rule="evenodd" clip-rule="evenodd" d="M8.30325 0.174397C8.10682 0.278232 7.9146 0.476095 7.80895 0.683335C7.64303 1.00886 7.63607 1.18487 7.63607 5.06918V9.11591H5.59092C3.37564 9.11591 2.95105 9.17484 2.11588 9.59835C1.16208 10.082 0.30018 11.2367 0.0721959 12.3363C0.0106437 12.6331 -0.010762 17.2145 0.00496993 26.7085L0.028009 40.6449L0.218082 41.1433C0.696916 42.3988 1.42024 43.2337 2.4533 43.7234L3.03685 44H20.8749H38.713L39.2966 43.7234C40.3335 43.2319 41.07 42.3793 41.5254 41.1433C41.6899 40.6967 41.7127 40.4237 41.7446 38.5158L41.7803 36.3866H42.3777C43.1424 36.3866 43.5837 36.1777 43.8269 35.7006C43.9953 35.3703 44 35.2042 44 29.5904C44 23.9766 43.9953 23.8105 43.8269 23.4802C43.5828 23.0013 43.1429 22.7943 42.3701 22.7943H41.7649L41.7636 20.6221C41.7626 19.0113 41.7295 18.3107 41.6354 17.9113C41.2648 16.3382 40.0308 15.0489 38.5745 14.7129C38.367 14.665 37.7621 14.6249 37.2301 14.6237L36.263 14.6217V13.6366C36.263 13.0948 36.2198 12.4464 36.1671 12.1956C35.8645 10.7553 34.6725 9.53658 33.2445 9.20718C33.0371 9.15927 32.4127 9.11918 31.8572 9.11797L30.8471 9.11591V5.06918C30.8471 1.18324 30.8402 1.00903 30.674 0.682991C30.5626 0.464396 30.38 0.281674 30.1616 0.170182C29.8269 -0.000668153 29.6802 -0.00290487 19.2235 0.000794302C8.8408 0.00449348 8.61815 0.00810663 8.30325 0.174397ZM28.2681 8.59974V14.6217H19.2416H10.2151V8.59974V2.57783H19.2416H28.2681V8.59974ZM7.63607 13.1592V14.6217H5.7074C3.66114 14.6217 3.45628 14.5897 3.04776 14.2075C2.31593 13.5228 2.46035 12.3573 3.33429 11.8948C3.69346 11.7047 3.78828 11.6967 5.67233 11.6967H7.63607V13.1592ZM32.9976 11.8562C33.1623 11.944 33.3835 12.1665 33.4892 12.3509C33.6563 12.6427 33.6813 12.8113 33.6826 13.6539L33.684 14.6217H32.2655H30.8471V13.1592V11.6967H31.7726C32.5087 11.6967 32.7593 11.7293 32.9976 11.8562ZM3.25176 17.1111C3.50571 17.1683 9.54307 17.199 20.8244 17.2004L38.0102 17.2025L38.3748 17.4163C38.6352 17.569 38.8032 17.7583 38.9626 18.0784C39.1849 18.5248 39.1859 18.5356 39.1859 20.6604V22.7943H35.7609C32.6336 22.7943 32.2784 22.809 31.6731 22.9639C29.5501 23.5072 27.7386 25.4134 27.0517 27.8269C26.7966 28.7231 26.7777 30.3701 27.0126 31.2248C27.5383 33.1372 28.8912 34.9329 30.4068 35.7298C31.5827 36.3483 31.8953 36.3866 35.7668 36.3866H39.1975L39.1702 38.3437C39.1437 40.2467 39.1369 40.3114 38.928 40.6846C38.8098 40.8957 38.5816 41.1571 38.4209 41.2653L38.1288 41.4622H20.8749H3.62108L3.32896 41.2653C3.16829 41.1571 2.94013 40.8957 2.82193 40.6846L2.60701 40.3008L2.58432 28.6164C2.56265 17.4869 2.56884 16.9342 2.71327 16.978C2.79665 17.0033 3.03899 17.0632 3.25176 17.1111ZM41.421 29.5933V33.8115L36.8433 33.7871L32.2655 33.7627L31.7589 33.5138C30.2239 32.7596 29.1673 30.673 29.4563 28.9667C29.6513 27.8153 30.4114 26.5445 31.2527 25.9635C32.1068 25.3736 32.0345 25.381 36.9722 25.3779L41.421 25.3751V29.5933ZM33.0617 28.4774C32.6987 28.6692 32.3945 29.1767 32.3945 29.5904C32.3945 30.2263 33.0453 30.8808 33.6776 30.8808C34.3379 30.8808 34.9735 30.2479 34.9735 29.5904C34.9735 29.1635 34.6694 28.6679 34.288 28.4732C33.8644 28.257 33.4765 28.2583 33.0617 28.4774Z" fill="white"/>
</svg>
