<svg width="43" height="43" viewBox="0 0 43 43" fill="none" xmlns="http://www.w3.org/2000/svg">
<path fill-rule="evenodd" clip-rule="evenodd" d="M5.11169 0.844425C5.23039 0.531018 5.50956 0.236111 5.81761 0.098745C6.02479 0.00641403 8.77203 -0.0100766 21.5279 0.00482357L36.987 0.022821L37.2181 0.195429C37.3755 0.312909 37.4897 0.39798 37.5731 0.506663C37.7943 0.794784 37.7995 1.24885 37.8195 2.91262L37.8444 4.99539L39.9272 5.02033C41.591 5.04033 42.045 5.04545 42.3331 5.26669C42.4418 5.35014 42.5269 5.46435 42.6444 5.6217C42.8146 5.84964 42.817 5.92874 42.817 11.3235C42.817 16.7183 42.8146 16.7974 42.6444 17.0254C42.2786 17.5154 42.0749 17.5994 41.1788 17.6305L40.3476 17.6592V26.4751V35.2909L41.2206 35.3195C42.1987 35.3514 42.4211 35.4501 42.7039 35.9773C42.8458 36.2419 42.8588 36.5006 42.8588 39.0541C42.8588 41.6831 42.8492 41.861 42.6903 42.1725C42.5818 42.3852 42.404 42.563 42.1913 42.6715C41.8629 42.839 41.7413 42.84 21.4293 42.84C1.11735 42.84 0.99572 42.839 0.66733 42.6715C0.454626 42.563 0.276828 42.3852 0.168341 42.1725C0.00946118 41.861 -0.000165352 41.6833 2.06641e-06 39.0555C8.57754e-05 36.5679 0.0158231 36.238 0.146493 35.9818C0.41252 35.4599 0.656699 35.3515 1.63802 35.3195L2.5111 35.2909V26.4751V17.6592L1.67987 17.6305C0.783769 17.5994 0.580105 17.5154 0.214297 17.0254C0.0441167 16.7974 0.0416891 16.7183 0.0416891 11.3235C0.0416891 5.92874 0.0441167 5.84964 0.214297 5.6217C0.331717 5.46441 0.416723 5.35024 0.525337 5.26679C0.81356 5.04537 1.26803 5.04033 2.93559 5.02033L5.02237 4.9953V3.03768C5.02237 1.85421 5.0577 0.986897 5.11169 0.844425ZM35.325 5.00351V3.74787V2.49224H21.4293H7.53364V3.74787V5.00351H21.4293H35.325ZM40.3476 15.1323V11.3235V7.51478H21.4293H2.5111V11.3235V15.1323H21.4293H40.3476ZM10.1292 11.3137C10.1298 10.8537 10.3092 10.5161 10.6845 10.2686C10.9157 10.1162 11.2785 10.1108 21.4293 10.1108C31.5801 10.1108 31.9429 10.1162 32.1741 10.2686C32.9479 10.7788 32.9237 11.9329 32.1289 12.4118C31.855 12.5768 31.7027 12.5792 21.4293 12.5792C11.156 12.5792 11.0036 12.5768 10.7297 12.4118C10.3317 12.1719 10.1285 11.8004 10.1292 11.3137ZM10.0449 35.3062V26.4749V17.6436H7.53364H5.02237V26.4749V35.3062H7.53364H10.0449ZM37.8363 35.3062V26.4749V17.6436H35.325H32.8138V26.4749V35.3062H35.325H37.8363ZM40.3476 40.3287V39.0731V37.8174H21.4293H2.5111V39.0731V40.3287H21.4293H40.3476ZM30.2188 35.3062V26.4749V17.6436H21.4293H12.6399V26.4749V35.3062H28.4978H30.2188Z" fill="white"/>
</svg>
